<?xml version="1.0" encoding="UTF-8" standalone="no"?>
<svg
   xmlns:dc="http://purl.org/dc/elements/1.1/"
   xmlns:cc="http://creativecommons.org/ns#"
   xmlns:rdf="http://www.w3.org/1999/02/22-rdf-syntax-ns#"
   xmlns:svg="http://www.w3.org/2000/svg"
   xmlns="http://www.w3.org/2000/svg"
   xmlns:xlink="http://www.w3.org/1999/xlink"
   xmlns:sodipodi="http://sodipodi.sourceforge.net/DTD/sodipodi-0.dtd"
   xmlns:inkscape="http://www.inkscape.org/namespaces/inkscape"
   id="Layer_1"
   version="1.1"
   viewBox="0 0 70 50"
   xml:space="preserve"
   sodipodi:docname="american.svg"
   width="70"
   height="50"
   inkscape:version="0.92.3 (2405546, 2018-03-11)"><metadata
     id="metadata45"><rdf:RDF><cc:Work
         rdf:about=""><dc:format>image/svg+xml</dc:format><dc:type
           rdf:resource="http://purl.org/dc/dcmitype/StillImage" /><dc:title></dc:title></cc:Work></rdf:RDF></metadata><defs
     id="defs43" /><sodipodi:namedview
     pagecolor="#ffffff"
     bordercolor="#666666"
     borderopacity="1"
     objecttolerance="10"
     gridtolerance="10"
     guidetolerance="10"
     inkscape:pageopacity="0"
     inkscape:pageshadow="2"
     inkscape:window-width="1299"
     inkscape:window-height="713"
     id="namedview41"
     showgrid="false"
     inkscape:zoom="5.2149126"
     inkscape:cx="43.08368"
     inkscape:cy="44.558369"
     inkscape:window-x="67"
     inkscape:window-y="27"
     inkscape:window-maximized="1"
     inkscape:current-layer="Layer_1" /><style
     type="text/css"
     id="style2">
	.st0{clip-path:url(#SVGID_2_);fill:#246EA9;}
	.st1{clip-path:url(#SVGID_4_);fill:#FFFFFE;}
	.st2{clip-path:url(#SVGID_6_);fill:#FFFFFE;}
	.st3{fill:#246EA9;}
</style><g
     id="g68"
     transform="matrix(0.54622852,0,0,0.53864196,-7.6073631,-9.1246761)"><g
       id="g14"><g
         id="g12"><defs
           id="defs5"><path
             id="SVGID_1_"
             d="m 13.9,29.3 c 0,-3.3 2.7,-6 6,-6 h 116 c 3.3,0 6,2.7 6,6 v 68 c 0,3.3 -2.7,6 -6,6 h -116 c -3.3,0 -6,-2.7 -6,-6 z"
             inkscape:connector-curvature="0" /></defs><clipPath
           id="SVGID_2_"><use
             id="use7"
             xlink:href="#SVGID_1_"
             style="overflow:visible"
             x="0"
             y="0"
             width="100%"
             height="100%" /></clipPath><path
           id="path10"
           clip-path="url(#SVGID_2_)"
           d="m 13.9,29.3 c 0,-3.3 2.7,-6 6,-6 h 116 c 3.3,0 6,2.7 6,6 v 68 c 0,3.3 -2.7,6 -6,6 h -116 c -3.3,0 -6,-2.7 -6,-6 z"
           class="st0"
           inkscape:connector-curvature="0"
           style="fill:#246ea9" /></g></g><g
       id="g24"><defs
         id="defs17"><path
           id="SVGID_3_"
           d="m 140.5,72.6 h -6.4 c -0.6,0 -1.1,0 -1.4,0.3 -0.4,0.2 -0.5,0.6 -0.5,1.1 0,0.6 0.3,0.9 0.8,1.1 0.4,0.1 0.8,0.2 1.3,0.2 h 1.9 c 1.9,0.1 3.2,0.4 4,1.2 0.1,0.1 0.2,0.2 0.3,0.4 z m 0,9.7 c -0.9,1.3 -2.5,1.9 -4.8,1.9 h -6.8 V 81 h 6.8 c 0.7,0 1.1,-0.1 1.4,-0.4 0.2,-0.2 0.4,-0.5 0.4,-1 0,-0.4 -0.2,-0.8 -0.4,-1 -0.3,-0.2 -0.6,-0.3 -1.2,-0.3 -3.3,-0.1 -7.4,0.1 -7.4,-4.6 0,-2.1 1.4,-4.4 5,-4.4 h 7 V 66.4 H 134 c -2,0 -3.4,0.5 -4.4,1.2 V 66.4 H 120 c -1.5,0 -3.3,0.4 -4.2,1.2 V 66.4 H 98.6 v 1.2 c -1.4,-1 -3.7,-1.2 -4.7,-1.2 H 82.5 v 1.2 c -1.1,-1 -3.5,-1.2 -5,-1.2 H 64.9 L 62,69.7 59.3,66.6 h -19 v 20.5 h 18.6 l 3,-3.2 2.8,3.2 h 11.5 v -4.8 h 1.1 c 1.5,0 3.3,0 4.9,-0.7 v 5.5 h 9.5 v -5.3 h 0.5 c 0.6,0 0.6,0 0.6,0.6 v 4.7 h 28.7 c 1.8,0 3.7,-0.5 4.8,-1.3 v 1.3 h 9.1 c 1.9,0 3.7,-0.3 5.2,-0.9 v -3.9 z m -14.1,-5.9 c 0.7,0.7 1.1,1.6 1.1,3.1 0,3.2 -2,4.6 -5.5,4.6 h -6.9 V 81 h 6.8 c 0.7,0 1.1,-0.1 1.4,-0.4 0.2,-0.2 0.4,-0.5 0.4,-1 0,-0.4 -0.2,-0.8 -0.4,-1 -0.3,-0.2 -0.6,-0.3 -1.3,-0.3 -3.3,-0.1 -7.4,0.1 -7.4,-4.6 0,-2.1 1.3,-4.4 5,-4.4 h 7 v 3.1 h -6.4 c -0.7,0 -1.1,0 -1.4,0.3 -0.4,0.2 -0.5,0.6 -0.5,1.1 0,0.6 0.3,0.9 0.8,1.1 0.4,0.1 0.8,0.2 1.4,0.2 h 1.9 c 2,0.2 3.2,0.5 4,1.3 z M 94.7,75.5 c -0.5,0.3 -1.1,0.3 -1.7,0.3 H 88.7 V 72.5 H 93 c 0.6,0 1.3,0 1.7,0.3 0.5,0.2 0.7,0.7 0.7,1.3 0.1,0.6 -0.2,1.1 -0.7,1.4 z m 2.2,1.8 c 0.8,0.3 1.4,0.8 1.7,1.2 0.5,0.7 0.6,1.4 0.6,2.7 v 2.9 h -3.5 v -1.8 c 0,-0.9 0.1,-2.2 -0.6,-2.9 -0.5,-0.5 -1.3,-0.7 -2.6,-0.7 h -3.8 v 5.4 H 85.2 V 69.5 h 8.1 c 1.8,0 3.1,0.1 4.2,0.7 1.1,0.7 1.8,1.6 1.8,3.3 0,2.3 -1.5,3.5 -2.4,3.8 z m 4.4,-7.8 H 113 v 3.1 h -8.2 v 2.7 h 8 v 3 h -8 v 2.9 h 8.2 v 3.1 H 101.3 Z M 77.6,76.3 H 73 v -3.7 h 4.6 c 1.3,0 2.1,0.5 2.1,1.8 0.1,1.2 -0.8,1.9 -2.1,1.9 z m -8.1,6.6 -5.4,-6 5.4,-5.8 z M 55.6,81.1 H 47 v -2.9 h 7.7 v -3 H 47 v -2.7 h 8.8 l 3.8,4.3 z m 27.9,-6.8 c 0,4.1 -3,4.9 -6.1,4.9 H 73 v 4.9 h -6.8 l -4.3,-4.9 -4.5,4.9 H 43.5 V 69.5 h 14.1 l 4.3,4.8 4.5,-4.8 h 11.2 c 2.8,0 5.9,0.8 5.9,4.8 z"
           inkscape:connector-curvature="0" /></defs><clipPath
         id="SVGID_4_"><use
           id="use19"
           xlink:href="#SVGID_3_"
           style="overflow:visible"
           x="0"
           y="0"
           width="100%"
           height="100%" /></clipPath></g><g
       id="g38"><g
         id="g34"><defs
           id="defs27"><path
             id="SVGID_5_"
             d="m 26.7,52.5 -2.4,-5.9 -2.4,5.9 z m 53,-2.3 c -0.5,0.3 -1.1,0.3 -1.7,0.3 H 73.7 V 47.2 H 78 c 0.6,0 1.3,0 1.7,0.3 0.5,0.2 0.7,0.7 0.7,1.3 0,0.7 -0.3,1.2 -0.7,1.4 z m 30.5,2.3 -2.4,-5.9 -2.4,5.9 z M 53.4,58.9 H 49.8 V 47.4 L 44.7,58.9 H 41.6 L 36.5,47.4 V 58.9 H 29.4 L 28,55.6 h -7.3 l -1.4,3.3 H 15.5 L 21.8,44.2 H 27 l 6,13.9 V 44.2 h 5.7 l 4.6,10 4.2,-10 h 5.8 v 14.7 z m 14.3,0 H 56 V 44.2 h 11.7 v 3.1 h -8.2 v 2.6 h 8 v 3 h -8 v 2.9 h 8.2 z M 84.3,48.1 c 0,2.3 -1.6,3.6 -2.5,3.9 0.8,0.3 1.4,0.8 1.7,1.2 0.5,0.7 0.6,1.4 0.6,2.7 v 2.9 H 80.6 V 56.9 C 80.6,56 80.7,54.7 80,54 79.5,53.5 78.7,53.4 77.4,53.4 h -3.8 v 5.3 H 70.1 V 44.2 h 8.1 c 1.8,0 3.1,0.1 4.3,0.7 1.1,0.6 1.8,1.6 1.8,3.2 z m 2,10.8 h 3.6 V 44.2 h -3.6 z m 45.2,0 h -5 l -6.7,-11 v 11 h -7.2 l -1.4,-3.3 H 104 l -1.3,3.3 h -4.1 c -1.7,0 -3.9,-0.4 -5.1,-1.6 -1.2,-1.3 -1.9,-2.9 -1.9,-5.6 0,-2.2 0.4,-4.2 1.9,-5.7 1.1,-1.2 2.9,-1.7 5.3,-1.7 h 3.4 v 3.1 h -3.3 c -1.3,0 -2,0.2 -2.7,0.9 -0.6,0.6 -1,1.8 -1,3.3 0,1.6 0.3,2.7 1,3.5 0.5,0.6 1.5,0.8 2.4,0.8 h 1.6 l 5,-11.6 h 5.3 l 5.9,13.9 v -14 h 5.4 L 128,54.4 V 44.2 h 3.6 V 58.9 Z M 15.4,61.8 h 6 l 1.4,-3.3 h 3 l 1.3,3.3 H 39 v -2.5 l 1.1,2.5 h 6.1 l 1,-2.5 v 2.5 h 29.4 v -5.4 h 0.6 c 0.4,0 0.5,0.1 0.5,0.7 v 4.7 h 15.2 v -1.3 c 1.2,0.7 3.1,1.3 5.6,1.3 h 6.4 l 1.4,-3.3 h 3 l 1.3,3.3 h 12.3 v -3.1 l 1.9,3.1 h 9.9 V 41.3 h -9.8 v 2.4 l -1.4,-2.4 h -10 v 2.4 l -1.3,-2.4 H 98.7 c -2.3,0 -4.3,0.3 -5.9,1.2 v -1.2 h -9.3 v 1.2 c -1,-0.9 -2.4,-1.2 -4,-1.2 H 45.4 l -2.3,5.3 -2.3,-5.3 H 30 v 2.4 L 28.8,41.3 H 19.6 L 15.4,51 Z"
             inkscape:connector-curvature="0" /></defs><clipPath
           id="SVGID_6_"><use
             id="use29"
             xlink:href="#SVGID_5_"
             style="overflow:visible"
             x="0"
             y="0"
             width="100%"
             height="100%" /></clipPath></g><g
         id="g75"
         transform="matrix(1,0,0,1.0995484,0,-6.5232649)"><rect
           style="fill:#fffffe"
           class="st1"
           height="30.5"
           width="110.2"
           x="35.299999"
           y="61.599998"
           clip-path="url(#SVGID_4_)"
           id="rect22" /><rect
           style="fill:#fffffe"
           class="st2"
           height="30.5"
           width="129.2"
           x="10.4"
           y="36.299999"
           clip-path="url(#SVGID_6_)"
           id="rect32" /><rect
           style="fill:#246ea9"
           class="st3"
           height="14.7"
           width="3.5999999"
           x="86.300003"
           y="44.200001"
           id="rect36" /></g></g></g></svg>