<?xml version="1.0" encoding="UTF-8" standalone="no"?>
<svg
   xmlns:osb="http://www.openswatchbook.org/uri/2009/osb"
   xmlns:dc="http://purl.org/dc/elements/1.1/"
   xmlns:cc="http://creativecommons.org/ns#"
   xmlns:rdf="http://www.w3.org/1999/02/22-rdf-syntax-ns#"
   xmlns:svg="http://www.w3.org/2000/svg"
   xmlns="http://www.w3.org/2000/svg"
   xmlns:sodipodi="http://sodipodi.sourceforge.net/DTD/sodipodi-0.dtd"
   xmlns:inkscape="http://www.inkscape.org/namespaces/inkscape"
   enable-background="new 0 0 87 56"
   height="50"
   id="Layer_1"
   version="1.1"
   viewBox="0 0 70 50"
   width="70"
   xml:space="preserve"
   sodipodi:docname="boleto.svg"
   inkscape:version="0.92.3 (2405546, 2018-03-11)"><metadata
     id="metadata85"><rdf:RDF><cc:Work
         rdf:about=""><dc:format>image/svg+xml</dc:format><dc:type
           rdf:resource="http://purl.org/dc/dcmitype/StillImage" /><dc:title></dc:title></cc:Work></rdf:RDF></metadata><defs
     id="defs83"><linearGradient
       id="linearGradient6066"><stop
         style="stop-color:#000000;stop-opacity:1;"
         offset="0"
         id="stop6064" /></linearGradient><linearGradient
       id="linearGradient6042"
       osb:paint="solid"><stop
         style="stop-color:#000000;stop-opacity:1;"
         offset="0"
         id="stop6040" /></linearGradient><linearGradient
       id="linearGradient4602"
       osb:paint="solid"><stop
         style="stop-color:#333333;stop-opacity:1;"
         offset="0"
         id="stop4600" /></linearGradient></defs><sodipodi:namedview
     pagecolor="#ffffff"
     bordercolor="#666666"
     borderopacity="1"
     objecttolerance="10"
     gridtolerance="10"
     guidetolerance="10"
     inkscape:pageopacity="0"
     inkscape:pageshadow="2"
     inkscape:window-width="1299"
     inkscape:window-height="713"
     id="namedview81"
     showgrid="false"
     inkscape:zoom="5.2156863"
     inkscape:cx="56.543043"
     inkscape:cy="29.951571"
     inkscape:window-x="67"
     inkscape:window-y="27"
     inkscape:window-maximized="1"
     inkscape:current-layer="Layer_1"
     inkscape:snap-object-midpoints="true" /><g
     id="g4222"
     transform="matrix(0.86101914,0,0,0.86101914,-0.27065678,2.8934606)"><rect
       ry="8.3061543"
       y="-0.47879198"
       x="1.2887686"
       height="50.088627"
       width="80.225067"
       id="rect6082"
       style="fill:#ececec;stroke:#000000;stroke-width:0.95426542;stroke-linecap:butt;stroke-linejoin:round;stroke-miterlimit:4;stroke-dasharray:none;stroke-opacity:1" /><a
       transform="matrix(1.0972189,0,0,1.0972189,-6.3345843,-2.3167145)"
       id="a441"><g
         style="stroke:none;stroke-opacity:1"
         id="g76"
         transform="matrix(1.0951609,0,0,1.1242066,-3.5686892,-6.943718)"><polygon
           style="clip-rule:evenodd;fill:#231f20;fill-rule:evenodd;stroke:none;stroke-opacity:1"
           id="polygon4"
           points="20.484,14.59 20.484,41.35 17.626,41.35 17.626,14.59 " /><polygon
           style="clip-rule:evenodd;fill:#231f20;fill-rule:evenodd;stroke:none;stroke-opacity:1"
           id="polygon6"
           points="22.271,14.59 22.271,41.35 21.385,41.35 21.385,14.59 " /><polygon
           style="clip-rule:evenodd;fill:#231f20;fill-rule:evenodd;stroke:none;stroke-opacity:1"
           id="polygon8"
           points="24.628,14.59 24.628,41.35 23.042,41.35 23.042,14.59 " /><polygon
           style="clip-rule:evenodd;fill:#231f20;fill-rule:evenodd;stroke:none;stroke-opacity:1"
           id="polygon10"
           points="27.042,14.59 27.042,41.35 26.156,41.35 26.156,14.59 " /><polygon
           style="clip-rule:evenodd;fill:#231f20;fill-rule:evenodd;stroke:none;stroke-opacity:1"
           id="polygon12"
           points="28.109,14.59 28.109,41.35 27.427,41.35 27.427,14.59 " /><polygon
           style="clip-rule:evenodd;fill:#231f20;fill-rule:evenodd;stroke:none;stroke-opacity:1"
           id="polygon14"
           points="16.339,14.59 16.339,41.35 15.453,41.35 15.453,14.59 " /><polygon
           style="clip-rule:evenodd;fill:#231f20;fill-rule:evenodd;stroke:none;stroke-opacity:1"
           id="polygon16"
           points="15.085,14.59 15.085,41.35 13.5,41.35 13.5,14.59 " /><polygon
           style="clip-rule:evenodd;fill:#231f20;fill-rule:evenodd;stroke:none;stroke-opacity:1"
           id="polygon18"
           points="35.7,14.59 35.7,41.35 32.843,41.35 32.843,14.59 " /><polygon
           style="clip-rule:evenodd;fill:#231f20;fill-rule:evenodd;stroke:none;stroke-opacity:1"
           id="polygon20"
           points="37.486,14.59 37.486,41.35 36.601,41.35 36.601,14.59 " /><polygon
           style="clip-rule:evenodd;fill:#231f20;fill-rule:evenodd;stroke:none;stroke-opacity:1"
           id="polygon22"
           points="39.844,14.59 39.844,41.35 38.258,41.35 38.258,14.59 " /><polygon
           style="clip-rule:evenodd;fill:#231f20;fill-rule:evenodd;stroke:none;stroke-opacity:1"
           id="polygon24"
           points="42.258,14.59 42.258,41.35 41.372,41.35 41.372,14.59 " /><polygon
           style="clip-rule:evenodd;fill:#231f20;fill-rule:evenodd;stroke:none;stroke-opacity:1"
           id="polygon26"
           points="43.326,14.59 43.326,41.35 42.643,41.35 42.643,14.59 " /><polygon
           style="clip-rule:evenodd;fill:#231f20;fill-rule:evenodd;stroke:none;stroke-opacity:1"
           id="polygon28"
           points="31.555,14.59 31.555,41.35 30.669,41.35 30.669,14.59 " /><polygon
           style="clip-rule:evenodd;fill:#231f20;fill-rule:evenodd;stroke:none;stroke-opacity:1"
           id="polygon30"
           points="30.301,14.59 30.301,41.35 28.716,41.35 28.716,14.59 " /><polygon
           style="clip-rule:evenodd;fill:#231f20;fill-rule:evenodd;stroke:none;stroke-opacity:1"
           id="polygon32"
           points="46.033,14.59 46.033,41.35 44.448,41.35 44.448,14.59 " /><polygon
           style="clip-rule:evenodd;fill:#231f20;fill-rule:evenodd;stroke:none;stroke-opacity:1"
           id="polygon34"
           points="48.446,14.59 48.446,41.35 47.563,41.35 47.563,14.59 " /><polygon
           style="clip-rule:evenodd;fill:#231f20;fill-rule:evenodd;stroke:none;stroke-opacity:1"
           id="polygon36"
           points="49.517,14.59 49.517,41.35 48.833,41.35 48.833,14.59 " /><polygon
           style="clip-rule:evenodd;fill:#231f20;fill-rule:evenodd;stroke:none;stroke-opacity:1"
           id="polygon38"
           points="52.961,14.59 52.961,41.35 52.076,41.35 52.076,14.59 " /><polygon
           style="clip-rule:evenodd;fill:#231f20;fill-rule:evenodd;stroke:none;stroke-opacity:1"
           id="polygon40"
           points="51.708,14.59 51.708,41.35 50.122,41.35 50.122,14.59 " /><polygon
           style="clip-rule:evenodd;fill:#231f20;fill-rule:evenodd;stroke:none;stroke-opacity:1"
           id="polygon42"
           points="55.023,14.59 55.023,41.35 54.139,41.35 54.139,14.59 " /><polygon
           style="clip-rule:evenodd;fill:#231f20;fill-rule:evenodd;stroke:none;stroke-opacity:1"
           id="polygon44"
           points="56.092,14.59 56.092,41.35 55.409,41.35 55.409,14.59 " /><polygon
           style="clip-rule:evenodd;fill:#231f20;fill-rule:evenodd;stroke:none;stroke-opacity:1"
           id="polygon46"
           points="59.537,14.59 59.537,41.35 58.652,41.35 58.652,14.59 " /><polygon
           style="clip-rule:evenodd;fill:#231f20;fill-rule:evenodd;stroke:none;stroke-opacity:1"
           id="polygon48"
           points="58.284,14.59 58.284,41.35 56.698,41.35 56.698,14.59 " /><polygon
           style="clip-rule:evenodd;fill:#231f20;fill-rule:evenodd;stroke:none;stroke-opacity:1"
           id="polygon50"
           points="63.167,14.59 63.167,41.35 60.31,41.35 60.31,14.59 " /><polygon
           style="clip-rule:evenodd;fill:#231f20;fill-rule:evenodd;stroke:none;stroke-opacity:1"
           id="polygon52"
           points="64.953,14.59 64.953,41.35 64.067,41.35 64.067,14.59 " /><polygon
           style="clip-rule:evenodd;fill:#231f20;fill-rule:evenodd;stroke:none;stroke-opacity:1"
           id="polygon54"
           points="67.311,14.59 67.311,41.35 65.725,41.35 65.725,14.59 " /><polygon
           style="clip-rule:evenodd;fill:#231f20;fill-rule:evenodd;stroke:none;stroke-opacity:1"
           id="polygon56"
           points="69.725,14.59 69.725,41.35 68.839,41.35 68.839,14.59 " /><polygon
           style="clip-rule:evenodd;fill:#231f20;fill-rule:evenodd;stroke:none;stroke-opacity:1"
           id="polygon58"
           points="70.792,14.59 70.792,41.35 70.109,41.35 70.109,14.59 " /><polygon
           style="clip-rule:evenodd;fill:#231f20;fill-rule:evenodd;stroke:none;stroke-opacity:1"
           id="polygon60"
           points="73.5,14.59 73.5,41.35 71.916,41.35 71.916,14.59 " /><polygon
           style="clip-rule:evenodd;fill:#ffffff;fill-rule:evenodd;stroke:none;stroke-opacity:1"
           id="polygon62"
           points="71.512,41.41 71.512,26.412 16.733,26.412 16.733,41.41 " /><path
           style="fill:#231f20;stroke:none;stroke-opacity:1"
           inkscape:connector-curvature="0"
           id="path64"
           d="M 17.766,40.835 V 27.266 h 5.092 c 1.036,0 1.867,0.136 2.495,0.41 0.625,0.275 1.115,0.698 1.469,1.27 0.357,0.568 0.534,1.166 0.534,1.791 0,0.579 -0.158,1.124 -0.471,1.637 -0.313,0.511 -0.786,0.926 -1.421,1.241 0.821,0.24 1.453,0.65 1.892,1.231 0.442,0.578 0.663,1.263 0.663,2.053 0,0.638 -0.135,1.229 -0.404,1.775 -0.269,0.547 -0.6,0.966 -0.995,1.264 -0.395,0.293 -0.891,0.519 -1.484,0.67 -0.597,0.151 -1.327,0.228 -2.192,0.228 h -5.178 z m 1.8,-7.865 H 22.5 c 0.795,0 1.368,-0.054 1.712,-0.158 0.458,-0.136 0.802,-0.363 1.032,-0.679 0.231,-0.316 0.348,-0.711 0.348,-1.188 0,-0.451 -0.107,-0.849 -0.326,-1.19 -0.214,-0.343 -0.524,-0.58 -0.925,-0.708 -0.401,-0.126 -1.09,-0.188 -2.063,-0.188 h -2.713 v 4.111 z m 0,6.272 h 3.38 c 0.581,0 0.988,-0.021 1.225,-0.066 0.411,-0.072 0.759,-0.195 1.037,-0.369 0.278,-0.174 0.505,-0.426 0.685,-0.759 0.18,-0.331 0.269,-0.714 0.269,-1.146 0,-0.509 -0.129,-0.947 -0.392,-1.324 -0.259,-0.375 -0.619,-0.638 -1.08,-0.789 -0.458,-0.151 -1.122,-0.228 -1.984,-0.228 h -3.14 z" /><path
           style="fill:#231f20;stroke:none;stroke-opacity:1"
           inkscape:connector-curvature="0"
           id="path66"
           d="m 29.648,35.917 c 0,-1.816 0.505,-3.162 1.52,-4.036 0.843,-0.727 1.876,-1.091 3.092,-1.091 1.349,0 2.454,0.442 3.313,1.327 0.856,0.881 1.286,2.104 1.286,3.66 0,1.264 -0.189,2.256 -0.568,2.979 -0.379,0.724 -0.932,1.286 -1.658,1.688 -0.724,0.4 -1.516,0.6 -2.372,0.6 -1.377,0 -2.489,-0.438 -3.339,-1.319 -0.851,-0.883 -1.274,-2.154 -1.274,-3.808 z m 1.706,0.003 c 0,1.257 0.274,2.198 0.824,2.82 0.553,0.626 1.245,0.939 2.082,0.939 0.827,0 1.516,-0.313 2.069,-0.942 0.549,-0.628 0.824,-1.586 0.824,-2.872 0,-1.212 -0.278,-2.131 -0.831,-2.754 -0.553,-0.625 -1.241,-0.938 -2.063,-0.938 -0.837,0 -1.529,0.31 -2.082,0.932 -0.549,0.623 -0.823,1.561 -0.823,2.815 z" /><polygon
           style="fill:#231f20;stroke:none;stroke-opacity:1"
           id="polygon68"
           points="40.776,27.266 42.443,27.266 42.443,40.835 40.776,40.835 " /><path
           style="fill:#231f20;stroke:none;stroke-opacity:1"
           inkscape:connector-curvature="0"
           id="path70"
           d="m 51.733,37.65 1.724,0.228 c -0.269,1.001 -0.771,1.781 -1.503,2.335 -0.732,0.553 -1.668,0.83 -2.809,0.83 -1.435,0 -2.57,-0.442 -3.411,-1.327 -0.84,-0.881 -1.26,-2.122 -1.26,-3.717 0,-1.648 0.423,-2.932 1.273,-3.841 0.85,-0.913 1.951,-1.368 3.306,-1.368 1.312,0 2.382,0.446 3.213,1.34 0.83,0.894 1.247,2.15 1.247,3.771 0,0.099 -0.003,0.246 -0.01,0.442 H 46.18 c 0.063,1.078 0.367,1.904 0.916,2.477 0.546,0.571 1.232,0.86 2.05,0.86 0.61,0 1.132,-0.163 1.561,-0.484 0.432,-0.323 0.772,-0.838 1.026,-1.546 z m -5.458,-2.671 h 5.476 c -0.072,-0.827 -0.283,-1.447 -0.628,-1.86 -0.527,-0.641 -1.216,-0.963 -2.06,-0.963 -0.764,0 -1.405,0.256 -1.927,0.767 -0.517,0.511 -0.805,1.196 -0.861,2.056 z" /><path
           style="fill:#231f20;stroke:none;stroke-opacity:1"
           inkscape:connector-curvature="0"
           id="path72"
           d="m 59.184,39.347 0.228,1.472 c -0.468,0.099 -0.887,0.148 -1.253,0.148 -0.604,0 -1.071,-0.094 -1.406,-0.287 -0.331,-0.192 -0.565,-0.441 -0.702,-0.754 -0.135,-0.313 -0.202,-0.971 -0.202,-1.972 v -5.667 h -1.231 v -1.288 h 1.231 v -2.433 l 1.668,-1.001 v 3.434 h 1.668 v 1.288 h -1.668 v 5.761 c 0,0.478 0.028,0.784 0.089,0.92 0.057,0.136 0.151,0.243 0.285,0.325 0.131,0.079 0.321,0.12 0.568,0.12 0.182,0 0.425,-0.022 0.725,-0.066 z" /><path
           style="fill:#231f20;stroke:none;stroke-opacity:1"
           inkscape:connector-curvature="0"
           id="path74"
           d="m 60.204,35.917 c 0,-1.816 0.506,-3.162 1.52,-4.036 0.844,-0.727 1.876,-1.091 3.093,-1.091 1.348,0 2.453,0.442 3.313,1.327 0.856,0.881 1.285,2.104 1.285,3.66 0,1.264 -0.189,2.256 -0.568,2.979 -0.378,0.724 -0.931,1.286 -1.658,1.688 -0.724,0.4 -1.517,0.6 -2.371,0.6 -1.378,0 -2.489,-0.438 -3.34,-1.319 -0.85,-0.883 -1.274,-2.154 -1.274,-3.808 z m 1.705,0.003 c 0,1.257 0.275,2.198 0.825,2.82 0.553,0.626 1.243,0.939 2.082,0.939 0.826,0 1.516,-0.313 2.068,-0.942 0.549,-0.628 0.825,-1.586 0.825,-2.872 0,-1.212 -0.279,-2.131 -0.831,-2.754 -0.555,-0.625 -1.242,-0.938 -2.063,-0.938 -0.839,0 -1.529,0.31 -2.082,0.932 -0.548,0.623 -0.824,1.561 -0.824,2.815 z" /></g></a></g></svg>