<?xml version="1.0" encoding="UTF-8" standalone="no"?>
<svg
   xmlns:dc="http://purl.org/dc/elements/1.1/"
   xmlns:cc="http://creativecommons.org/ns#"
   xmlns:rdf="http://www.w3.org/1999/02/22-rdf-syntax-ns#"
   xmlns:svg="http://www.w3.org/2000/svg"
   xmlns="http://www.w3.org/2000/svg"
   xmlns:sodipodi="http://sodipodi.sourceforge.net/DTD/sodipodi-0.dtd"
   xmlns:inkscape="http://www.inkscape.org/namespaces/inkscape"
   height="50"
   viewBox="-7.601 0 17.690925 14.201805"
   width="70"
   version="1.1"
   id="svg16"
   sodipodi:docname="cielo.svg"
   inkscape:version="0.92.3 (2405546, 2018-03-11)">
  <metadata
     id="metadata22">
    <rdf:RDF>
      <cc:Work
         rdf:about="">
        <dc:format>image/svg+xml</dc:format>
        <dc:type
           rdf:resource="http://purl.org/dc/dcmitype/StillImage" />
        <dc:title></dc:title>
      </cc:Work>
    </rdf:RDF>
  </metadata>
  <defs
     id="defs20" />
  <sodipodi:namedview
     pagecolor="#ffffff"
     bordercolor="#666666"
     borderopacity="1"
     objecttolerance="10"
     gridtolerance="10"
     guidetolerance="10"
     inkscape:pageopacity="0"
     inkscape:pageshadow="2"
     inkscape:window-width="1299"
     inkscape:window-height="713"
     id="namedview18"
     showgrid="false"
     inkscape:zoom="6.1439999"
     inkscape:cx="79.653397"
     inkscape:cy="23.85411"
     inkscape:window-x="67"
     inkscape:window-y="27"
     inkscape:window-maximized="1"
     inkscape:current-layer="svg16" />
  <g
     style="fill:none;fill-rule:evenodd"
     id="g8"
     transform="matrix(0.53345306,0,0,0.53345306,-35.816917,-97.181237)">
    <path
       inkscape:connector-curvature="0"
       id="path2"
       d="m 50.405,151.628 c -10.277,9.358 -23.233,0.282 -22.687,-10.044 0.406,-7.675 8.306,-15.776 18.357,-11.796 l 3.656,-8.466 c -21.793,-7.1 -33.377,11.536 -30.902,24.09 4.001,20.294 25.88,24.11 37.926,12.854 z m 19.386,-16.019 c 0.29,-8.16 -8.098,-9.86 -12.604,-11.641 l -3.656,8.37 7.409,3.271 0.192,28.093 h 8.563 z m 16.259,25.399 4.811,-7.696 m 0,0 c 6.28,3.31 11.732,2.732 16.356,-1.732 l 6.638,6.639 c -9.839,7.627 -16.99,8.172 -27.805,2.79 m -6.734,-6.735 c -8.265,-12.966 -1.838,-27.738 9.099,-32.613 11.605,-5.173 27.3,-0.403 31.598,15.295 z" />
    <path
       inkscape:connector-curvature="0"
       id="path4"
       d="m 84.655,143.642 c -0.155,-15.278 15.977,-19.286 23.283,-10.006 z m 48.25,9.285 -0.193,-43.487 h -8.466 l 0.096,43.968 c -0.026,8.15 8.397,9.259 12.508,11.16 l 3.367,-8.37 z m 40.312,-0.963 c -8.495,9.27 -27.865,-1.282 -20.878,-15.49 l -8.466,-4.233 c -9.438,21.37 14.666,43.058 35.405,26.458 z m 3.031,-4.089 c 5.983,-14.747 -10.694,-24.817 -20.878,-15.49 l -6.253,-6.927 c 16.784,-14.983 45.551,1.02 35.501,26.362 z" />
    <ellipse
       id="ellipse6"
       ry="6.0609999"
       rx="6.1090002"
       cy="114.827"
       cx="65.413002" />
  </g>
  <g
     id="g46"
     transform="matrix(0.23004955,0,0,0.22445447,-3.2966114,0.47894293)">
    <rect
       rx="6.9805703"
       ry="6.7914839"
       y="13.063324"
       x="-23.203026"
       height="31.079233"
       width="85.871147"
       id="rect24"
       style="fill:#ffffff;stroke:#000000;stroke-width:0.03697651;stroke-linecap:butt;stroke-linejoin:round;stroke-miterlimit:4;stroke-dasharray:none;stroke-opacity:1" />
    <g
       transform="matrix(0.15055261,0,0,0.15055261,-29.308258,12.381529)"
       id="g17"
       style="fill-rule:evenodd">
      <g
         id="g21">
        <path
           d="M 155.17673,155.8765 C 121.93929,186.14289 80.03788,156.78744 81.804081,123.39118 83.11755,98.569438 108.66677,72.370334 141.17399,85.242151 L 152.99887,57.85919 C 82.515125,34.894013 45.051583,95.1703 53.05471,135.77102 c 12.940275,65.63604 83.70424,77.98028 122.65924,41.57555 z m 34.07261,-51.80948 0.62251,90.86032 h 27.6933 l 0.31034,-90.86032 C 218.81564,77.674413 191.68552,72.175002 177.11322,66.416365 L 165.28925,93.488073 Z M 278.10888,58.953595 C 242.73648,74.719792 221.9519,122.49758 248.68132,164.43185 l 131.6226,-56.01002 C 366.40341,57.652905 315.64362,42.223519 278.10979,58.953595 Z m -12.15803,71.094385 c -0.50203,-49.41073 51.67164,-62.37565 75.30131,-32.361186 z m 72.9692,25.67335 c -14.95475,14.4363 -32.58664,16.30381 -52.89841,5.60073 L 270.46356,186.215 c 34.97443,17.40643 58.10482,15.64388 89.92564,-9.0236 z M 393.9954,19.431767 394.30574,161.63331 c -0.084,26.35793 27.15659,29.94327 40.45193,36.09531 l 10.89021,-27.07171 -23.64793,-10.57895 -0.62342,-140.646193 z m 63.47735,73.742315 C 426.94714,162.28868 504.90552,232.4347 571.981,178.74492 L 552.37753,156.9636 c -27.47423,29.97796 -90.12097,-4.14669 -67.52273,-50.09804 z"
           id="path10"
           inkscape:connector-curvature="0"
           style="stroke-width:0.91276538" />
        <path
           d="m 494.65608,93.643243 c 32.93714,-30.166895 86.87244,2.402399 67.52364,50.098037 l 27.0708,12.75773 C 621.75409,74.539977 528.71592,22.782529 474.43102,71.239417 Z M 203.7185,56.456269 c 10.91211,0 19.75863,-8.776239 19.75863,-19.602549 0,-10.82631 -8.84652,-19.603462 -19.75863,-19.603462 -10.91302,0 -19.75954,8.776239 -19.75954,19.603462 0,10.827223 8.84652,19.602549 19.75954,19.602549 z"
           id="path12"
           inkscape:connector-curvature="0"
           style="fill:#01aef0;stroke-width:0.91276538" />
      </g>
    </g>
  </g>
</svg>
