<?xml version="1.0" encoding="UTF-8" standalone="no"?>
<svg
   xmlns:dc="http://purl.org/dc/elements/1.1/"
   xmlns:cc="http://creativecommons.org/ns#"
   xmlns:rdf="http://www.w3.org/1999/02/22-rdf-syntax-ns#"
   xmlns:svg="http://www.w3.org/2000/svg"
   xmlns="http://www.w3.org/2000/svg"
   xmlns:sodipodi="http://sodipodi.sourceforge.net/DTD/sodipodi-0.dtd"
   xmlns:inkscape="http://www.inkscape.org/namespaces/inkscape"
   width="70"
   height="50"
   viewBox="0 0 70 50"
   version="1.1"
   id="svg19"
   sodipodi:docname="elo.svg"
   inkscape:version="0.92.3 (2405546, 2018-03-11)">
  <metadata
     id="metadata23">
    <rdf:RDF>
      <cc:Work
         rdf:about="">
        <dc:format>image/svg+xml</dc:format>
        <dc:type
           rdf:resource="http://purl.org/dc/dcmitype/StillImage" />
        <dc:title></dc:title>
      </cc:Work>
    </rdf:RDF>
  </metadata>
  <sodipodi:namedview
     pagecolor="#ffffff"
     bordercolor="#666666"
     borderopacity="1"
     objecttolerance="10"
     gridtolerance="10"
     guidetolerance="10"
     inkscape:pageopacity="0"
     inkscape:pageshadow="2"
     inkscape:window-width="1299"
     inkscape:window-height="713"
     id="namedview21"
     showgrid="false"
     inkscape:zoom="2.8344323"
     inkscape:cx="107.76682"
     inkscape:cy="0.58380719"
     inkscape:window-x="67"
     inkscape:window-y="27"
     inkscape:window-maximized="1"
     inkscape:current-layer="svg19" />
  <!-- Generator: Sketch 48.2 (47327) - http://www.bohemiancoding.com/sketch -->
  <desc
     id="desc2">Created with Sketch.</desc>
  <defs
     id="defs4" />
  <g
     id="Page-1"
     style="fill:none;fill-rule:evenodd;stroke:none;stroke-width:1"
     transform="matrix(0.09304649,0,0,0.09304649,1.1845452,2.8905745)">
    <g
       id="elo"
       style="fill-rule:nonzero">
      <path
         d="M 39.254915,53.885593 H 696.77475 c 21.68834,0 39.25491,14.03178 39.25491,31.355932 V 391.74576 c 0,17.32415 -17.56657,31.35593 -39.25491,31.35593 H 39.254915 C 17.566575,423.10169 0,409.06991 0,391.74576 V 85.241525 C 0,67.917373 17.566575,53.885593 39.254915,53.885593 Z"
         id="Rectangle-1"
         inkscape:connector-curvature="0"
         style="fill:#ffffff;stroke-width:0.87709546" />
      <path
         d="m 119.27567,170.63762 c 7.69536,-2.60284 15.95657,-3.96085 24.55727,-3.96085 37.57149,0 68.91878,26.70744 76.04832,62.12876 l 53.18855,-10.86405 c -12.22205,-60.20491 -65.4106,-105.58494 -129.23687,-105.58494 -14.59857,0 -28.63129,2.37651 -41.75867,6.79003 z"
         id="Shape"
         inkscape:connector-curvature="0"
         style="fill:#fff100;stroke-width:1.13167143" />
      <path
         d="M 56.467907,343.10435 92.455061,302.36418 C 76.385325,288.10512 66.313449,267.39553 66.313449,244.19627 c 0,-23.08611 10.071876,-43.90886 26.141612,-58.05475 L 56.467907,145.51451 c -27.273281,24.21777 -44.474687,59.41275 -44.474687,98.79492 0,39.26899 17.201406,74.57715 44.474687,98.79492 z"
         id="path8"
         inkscape:connector-curvature="0"
         style="fill:#00a3df;stroke-width:1.13167143" />
      <path
         d="m 219.88126,259.81333 c -7.2427,35.42132 -38.47683,62.0156 -76.04832,62.0156 -8.6007,0 -16.86191,-1.35802 -24.67043,-3.96085 l -17.20141,51.49104 c 13.12738,4.41352 27.27327,6.79003 41.87184,6.79003 63.82627,0 117.01482,-45.26686 129.23687,-105.47178 z"
         id="path10"
         inkscape:connector-curvature="0"
         style="fill:#ee4023;stroke-width:1.13167143" />
      <g
         id="Group"
         transform="translate(342,148)"
         style="fill:#ffffff">
        <path
           d="m 90.327706,148.25315 c -8.827041,8.6007 -20.709591,13.80639 -33.83698,13.58006 -9.053371,-0.11318 -17.42774,-2.82919 -24.444103,-7.35587 l -17.654074,28.06545 c 12.108884,7.5822 26.254777,12.10888 41.645509,12.33522 22.293926,0.3395 42.664018,-8.48753 57.488902,-22.85977 z M 58.414568,33.841167 c -44.36152,-0.679002 -81.027675,34.855481 -81.706679,79.217013 -0.226334,16.63555 4.526687,32.25262 13.014223,45.15367 L 135.48139,95.856762 C 127.33335,60.888115 96.099226,34.52017 58.414568,33.841167 Z M 10.092198,119.39553 C 9.8658626,117.58486 9.7526966,115.66101 9.7526966,113.73717 10.205365,87.595561 31.707122,66.659639 57.848732,67.112307 c 14.25906,0.226335 26.933774,6.676861 35.421324,16.861905 z M 181.31408,-2.3723177 V 153.00617 l 26.93379,11.20355 -12.78789,30.66829 -26.70745,-11.09038 c -5.99786,-2.60285 -10.07187,-6.5637 -13.12739,-11.09038 -2.94234,-4.52668 -5.20569,-10.86404 -5.20569,-19.23841 V -2.3723177 Z"
           id="path12"
           inkscape:connector-curvature="0"
           style="fill:#000000;stroke-width:1.13167143" />
        <path
           d="m 278.52466,69.488818 c 4.75302,-1.58434 9.73237,-2.376511 15.05123,-2.376511 22.97293,0 41.98501,16.296069 46.39853,37.910993 l 32.47897,-6.676861 c -7.46903,-36.779322 -39.948,-64.392105 -78.8775,-64.392105 -8.9402,0 -17.5409,1.471174 -25.4626,4.074017 z M 240.161,174.62109 262.11542,149.83748 c -9.84554,-8.71386 -15.95656,-21.38859 -15.95656,-35.53447 0,-14.1459 6.22419,-26.820617 15.95656,-35.42132 L 240.161,54.098086 c -16.63557,14.711728 -27.16011,36.326652 -27.16011,60.318094 0,23.99143 10.52454,45.49318 27.16011,60.20491 z m 99.81342,-50.69888 c -4.41352,21.61493 -23.53876,37.911 -46.39853,37.911 -5.20569,0 -10.29821,-0.90535 -15.05123,-2.48968 l -10.52454,31.46046 c 8.03487,2.71601 16.63557,4.18718 25.57577,4.18718 38.9295,0 71.40847,-27.61278 78.8775,-64.3921 z"
           id="path14"
           inkscape:connector-curvature="0"
           style="fill:#000000;stroke-width:1.13167143" />
      </g>
    </g>
  </g>
</svg>
