<?xml version="1.0" encoding="UTF-8" standalone="no"?>
<svg
   xmlns:dc="http://purl.org/dc/elements/1.1/"
   xmlns:cc="http://creativecommons.org/ns#"
   xmlns:rdf="http://www.w3.org/1999/02/22-rdf-syntax-ns#"
   xmlns:svg="http://www.w3.org/2000/svg"
   xmlns="http://www.w3.org/2000/svg"
   xmlns:sodipodi="http://sodipodi.sourceforge.net/DTD/sodipodi-0.dtd"
   xmlns:inkscape="http://www.inkscape.org/namespaces/inkscape"
   width="70"
   height="50"
   enable-background="new 0 0 780 501"
   version="1.1"
   viewBox="0 0 70 50.1"
   xml:space="preserve"
   id="svg6"
   sodipodi:docname="hipercard.svg"
   inkscape:version="0.92.3 (2405546, 2018-03-11)"><metadata
     id="metadata12"><rdf:RDF><cc:Work
         rdf:about=""><dc:format>image/svg+xml</dc:format><dc:type
           rdf:resource="http://purl.org/dc/dcmitype/StillImage" /><dc:title></dc:title></cc:Work></rdf:RDF></metadata><defs
     id="defs10" /><sodipodi:namedview
     pagecolor="#ffffff"
     bordercolor="#666666"
     borderopacity="1"
     objecttolerance="10"
     gridtolerance="10"
     guidetolerance="10"
     inkscape:pageopacity="0"
     inkscape:pageshadow="2"
     inkscape:window-width="1299"
     inkscape:window-height="713"
     id="namedview8"
     showgrid="false"
     inkscape:zoom="7.552"
     inkscape:cx="63.305843"
     inkscape:cy="8.5184812"
     inkscape:window-x="67"
     inkscape:window-y="27"
     inkscape:window-maximized="1"
     inkscape:current-layer="svg6" /><g
     id="g14"
     transform="matrix(0.0915549,0,0,0.0915549,-24.270269,36.282629)"><g
       transform="matrix(0.8162564,0,0,0.77624722,335.03552,-3.7613737)"
       id="g9"><rect
         style="fill:#ffffff;stroke:#000000;stroke-width:0.90179998;stroke-linecap:butt;stroke-linejoin:round;stroke-miterlimit:4;stroke-dasharray:none;stroke-opacity:1"
         id="rect8"
         width="780.15887"
         height="371.50424"
         x="0.28144065"
         y="-321.40424"
         ry="7.8461714" /></g><path
       style="fill:#b3131b;stroke-width:1.17330456"
       inkscape:connector-curvature="0"
       id="path4"
       d="m 587.80069,83.937077 -317.91332,0.12903 v -0.85611 c 0,-0.47024 0.50706,-3.52123 1.12617,-6.78067 0.62023,-3.2582 1.5833,-8.44204 2.1425,-11.51785 0.55699,-3.0758 1.51118,-8.30307 2.11809,-11.61834 1.49343,-8.09835 2.9691,-16.20167 4.42592,-24.30871 0.57362,-3.19615 1.52893,-8.42464 2.12585,-11.61708 0.76114,-4.0858 1.5134,-8.1740499 2.26011,-12.2635399 0.64575,-3.54852 1.62768,-8.97183 2.18245,-12.04889 0.55476,-3.0770401 1.43573,-7.8204201 1.95832,-10.5401401 0.52147,-2.72095 1.1883,-6.39976 1.479,-8.1765 0.2918,-1.77429 1.23601,-7.00402 2.09812,-11.61712 0.72563,-3.86741 1.43129,-7.73976 2.11365,-11.6171 0.30068,-1.77427 1.25599,-7.00401 2.12364,-11.61711 0.86654,-4.61309 1.81852,-9.84159 2.11587,-11.6171 0.29735,-1.77425 1.25488,-7.00276 2.12697,-11.6171 0.8743,-4.61557 1.8174,-9.74483 2.09479,-11.40122 0.2796,-1.65639 1.04295,-5.915867 1.69758,-9.465637 0.65351,-3.54977 1.89174,-10.22996 2.75052,-14.84429 0.85988,-4.61557 2.3289,-12.65065 3.26423,-17.8593 0.93755,-5.20493 2.05707,-11.39997 2.48868,-13.76731 1.26819,-6.95811 2.54747,-13.91497 3.84007,-20.86689 0.63688,-3.43436 1.67206,-9.04874 2.30117,-12.48065 0.63021,-3.4319 1.59994,-8.75593 2.15581,-11.83175 0.55588,-3.07581 1.50452,-8.20629 2.10811,-11.40246 0.60358,-3.19368 1.6421,-8.81054 2.30782,-12.47818 0.66571,-3.66889 1.78079,-9.28326 2.47758,-12.47818 0.69678,-3.19492 1.68204,-7.06729 2.1902,-8.60457 0.50706,-1.53977 1.90839,-4.87241 3.11334,-7.41098 l 2.19132,-4.61185 1.99161,-2.91823 c 1.09399,-1.60305 3.05009,-4.13789 4.34491,-5.63175 1.29482,-1.49386 3.47837,-3.74209 4.8553,-4.99524 1.3747,-1.2544 3.36631,-2.94677 4.42369,-3.7607 1.05848,-0.81393 3.13663,-2.23955 4.61786,-3.16763 1.48121,-0.92808 3.56047,-2.14277 4.61785,-2.69986 1.05849,-0.5571 3.22319,-1.57575 4.80982,-2.26188 1.58662,-0.68489 4.61674,-1.83506 6.73261,-2.55346 2.11587,-0.71963 6.0891,-1.80404 8.82853,-2.40828 2.73942,-0.60549 7.06659,-1.41445 9.61961,-1.79785 l 4.63894,-0.6973 318.11304,-0.134 318.11298,-0.13772 v 0.85612 c 0,0.47024 -0.5103,3.52123 -1.1328,6.77943 -0.7866,4.123 -1.5589,8.24848 -2.3167,12.37893 -0.6524,3.54977 -1.5988,8.68149 -2.1092,11.40245 -0.7212,3.87113 -1.4368,7.7435 -2.1447,11.6171 -0.6702,3.66889 -1.6998,9.2845 -2.289,12.47818 -0.5891,3.19492 -1.5444,8.42343 -2.1214,11.61711 -0.5769,3.19616 -1.5378,8.42342 -2.1336,11.6171 -0.6946,3.72721 -1.3803,7.45689 -2.0571,11.18905 -0.5337,2.95794 -1.5012,8.28198 -2.148,11.83175 -0.648,3.54855 -1.6876,9.1654 -2.3112,12.47817 -0.6235,3.31282 -1.5733,8.44454 -2.1103,11.40248 -0.5381,2.95795 -1.5045,8.28198 -2.1503,11.8305 -0.6457,3.54978 -1.6831,9.16665 -2.3067,12.48067 -0.6235,3.31279 -1.5511,8.34651 -2.0648,11.18656 -1.4235,7.8899 -2.85706,15.77981 -4.29833,23.66598 -0.52148,2.838837 -1.45016,7.873797 -2.06372,11.186577 -0.78666,4.22846 -1.56555,8.4594 -2.3389,12.69284 -0.67127,3.66888 -1.63212,8.89491 -2.13362,11.61833 -0.50374,2.71973 -1.44349,7.85022 -2.09145,11.39998 -0.75893,4.16147 -1.52118,8.3192 -2.28897,12.47819 -0.61134,3.31403 -1.57,8.54253 -2.1314,11.61958 -0.5592,3.07581 -1.53448,8.40109 -2.16359,11.8305 -0.63021,3.43192 -1.66095,9.0462801 -2.28785,12.4781901 -0.62799,3.4319 -1.56887,8.56363 -2.09145,11.40371 -0.71232,3.86988 -1.41799,7.7422499 -2.12143,11.6158699 -0.7578,4.14779 -1.53447,8.29188 -2.33223,12.431 l -1.15835,5.97669 -1.38025,4.13416 c -0.75891,2.27429 -1.90063,5.29675 -2.5375,6.71739 -0.63353,1.41943 -1.92835,3.9245 -2.87589,5.56724 -0.94753,1.64026 -2.26787,3.74457 -2.93359,4.67389 -0.66683,0.92932 -2.67063,3.32892 -4.45808,5.33396 l -3.24316,3.64159 -3.12222,2.48151 c -1.71756,1.36605 -3.56935,2.75444 -4.1108,3.08449 -0.54367,0.33253 -2.61295,1.51495 -4.60011,2.62416 -1.98494,1.1117 -4.78983,2.52741 -6.23222,3.14406 -1.44239,0.61914 -4.29943,1.67004 -6.34873,2.33633 -2.04929,0.66876 -4.24616,1.32635 -4.87971,1.46284 -0.63576,0.13522 -2.83927,0.64518 -4.89746,1.13404 -2.05817,0.4876 -6.21446,1.21468 -9.2335,1.61669 l -5.49217,0.73204 -317.9133,0.12407 z M 474.69531,-8.0208129 h 8.27263 l 0.23301,-0.68116 c 0.12982,-0.37471 0.23411,-1.2544 0.23411,-1.9554201 0,-0.70101 0.27295,-3.24951 0.60693,-5.664 0.33285,-2.41699 1.11395,-7.97427 1.7375,-12.35163 0.62245,-4.37859 1.55446,-10.962 2.0715,-14.62963 0.49152,-3.4741 0.95864,-6.95315 1.40356,-10.43468 0.25408,-2.0708 0.56363,-3.76441 0.68901,-3.76441 0.12427,0 0.65906,0.91442 1.18831,2.03357 l 0.96085,2.0336 2.13251,2.40453 2.13363,2.40334 2.62515,1.17623 2.62626,1.17498 3.12886,0.45287 3.12997,0.45287 3.97102,-0.27171 3.9721,-0.27421 4.30054,-1.24322 4.30165,-1.24696 2.30781,-1.17622 c 1.27041,-0.64767 3.52054,-2.06211 5.00176,-3.14032 l 2.69394,-1.96163 2.51086,-2.8078 c 1.38136,-1.54101 3.3297,-4.01754 4.32828,-5.50149 1.00078,-1.48018 1.81852,-2.80159 1.81852,-2.9331 0,-0.13153 0.49152,-1.04968 1.09177,-2.03979 0.60024,-0.98887 1.82739,-3.73714 2.72833,-6.102 0.90205,-2.36609 2.30893,-6.62558 3.12997,-9.46565 l 1.49122,-5.16398 0.77113,-4.47165 c 0.42384,-2.45915 0.96971,-6.52631 1.21271,-9.036357 l 0.44048,-4.56346 -0.2552,-3.87237 -0.25408,-3.87237 -0.8044,-3.87235 -0.80219,-3.87237 -1.30037,-2.89839 -1.29926,-2.90087 -2.51085,-2.9753 -2.50978,-2.97531 -2.9702,-1.71718 -2.97021,-1.71597 -3.27089,-0.8772 -3.27089,-0.87473 -3.27088,-0.26799 -3.2698,-0.26924 -3.64258,0.46775 -3.64479,0.46901 -2.97243,0.84992 -2.97354,0.84867 -2.58409,1.33751 c -1.4202,0.73452 -3.48837,1.98395 -4.59345,2.7743 -1.10621,0.79285 -2.24791,1.70106 -2.53639,2.02242 -0.28736,0.32135 -0.97859,0.91816 -1.53338,1.32264 l -1.01076,0.74073 0.70565,-3.78056 c 0.38945,-2.07824 0.71343,-4.02002 0.72229,-4.31778 l 0.0155,-0.53725 h -14.10878 l -1.23601,8.71252 c -0.68125,4.79299 -1.75527,12.199 -2.38771,16.45972 -1.39468,9.39741 -2.806,18.791097 -4.23397,28.182297 -0.6291,4.14038 -1.66873,10.72502 -2.31115,14.62965 -0.64241,3.90463 -1.58218,9.61701 -2.09034,12.69408 -0.50706,3.0758 -1.46347,8.88372 -2.12254,12.90622 -0.77778,4.73469 -1.56331,9.46814 -2.35662,14.1991 -0.75116,4.44931 -1.51895,8.89491 -2.30117,13.33801 -0.63021,3.54855 -1.23823,6.8911201 -1.35474,7.4209201 l -0.2097,0.96901 h 8.27376 z m 35.61588,-49.7476901 -3.21209,0.21711 -2.09922,-0.41689 -2.10035,-0.4144 -2.13252,-1.08815 -2.13362,-1.08936 -1.48899,-1.59064 -1.4901,-1.5894 -0.85988,-2.15145 c -0.47378,-1.18367 -1.08068,-3.19367 -1.35029,-4.46916 l -0.49042,-2.31399 0.1964,-3.70859 0.19749,-3.70611 0.99082,-5.81042 c 0.74781,-4.44062 1.47344,-8.88746 2.17467,-13.33801 0.65128,-4.141607 1.63876,-10.210097 2.19242,-13.485667 l 1.00635,-5.95559 2.20574,-2.05219 c 1.21383,-1.1266 3.13553,-2.64155 4.27168,-3.36118 l 2.06372,-1.31022 2.69282,-0.93182 2.69395,-0.93301 3.46284,-0.2283 3.46284,-0.22707 2.82043,0.67248 2.81931,0.67126 1.99049,1.02484 1.98939,1.02486 1.66873,1.876 1.66984,1.87601 0.89872,1.98768 c 0.49596,1.09309 1.19163,3.23089 1.54557,4.75205 l 0.64464,2.76562 -0.1975,8.17652 -0.19749,8.176517 -0.98748,4.83272 c -0.54368,2.65768 -1.57777,6.72359 -2.29896,9.03385 l -1.31034,4.20489 -1.6066,3.40213 c -0.88319,1.87229 -2.24458,4.40093 -3.0257,5.61935 -0.7811,1.21839 -2.0271,2.8016 -2.76826,3.51132 -0.89761,0.85361 -1.81631,1.67747 -2.75607,2.47032 l -1.41021,1.17746 -3.26534,1.24198 -3.26535,1.242 z m 79.89828,11.82926 4.23285,0.0545 4.23064,-0.43179 c 2.33,-0.23696 6.13791,-0.73203 8.46459,-1.10053 2.33001,-0.36601 6.35095,-1.18738 8.93837,-1.82265 l 4.70329,-1.15761 0.23522,-1.94054 c 0.1276,-1.06456 0.65683,-4.23962 1.17388,-7.05363 l 0.93978,-5.11809 -0.2086,-0.23078 -0.20749,-0.23201 -1.43793,0.77547 c -0.79111,0.42682 -3.25538,1.44671 -5.47443,2.26436 l -4.03646,1.48517 -4.23619,0.9194 -4.23617,0.91689 -6.73262,0.0162 -6.73375,0.0136 -2.30892,-0.82386 c -1.2693,-0.45287 -3.13664,-1.28168 -4.14964,-1.84374 l -1.8407,-1.01865 -1.51896,-1.53482 -1.52005,-1.53603 -1.18608,-2.31647 -1.18608,-2.31896 -0.74338,-2.90583 -0.74339,-2.90831 -0.004,-5.37987 -0.005,-5.37986 0.65906,-4.79798 0.66239,-4.80044 5.78952,-0.30274 5.78953,-0.30274 21.40391,0.15509 21.40281,0.15261 0.64575,-3.06466 c 0.35616,-1.686147 0.89983,-5.171407 1.20829,-7.744717 l 0.56142,-4.68011 0.0122,-3.93563 0.0132,-3.93689 -0.60915,-2.93808 -0.61134,-2.93934 -1.00745,-1.94424 c -0.55254,-1.06952 -1.53116,-2.62045 -2.16913,-3.4468 -0.63908,-0.82509 -1.7808,-1.99015 -2.53639,-2.58571 -0.7578,-0.59555 -2.24124,-1.60055 -3.29972,-2.22962 l -1.92282,-1.14397 -3.36077,-0.90573 -3.36188,-0.90451 -4.13965,-0.44295 -4.14297,-0.4417 -3.84674,0.28042 -3.84785,0.27915 -4.61785,0.99259 -4.61677,0.99261 -2.88698,1.28912 c -1.58773,0.70723 -4.01095,2.00382 -5.38565,2.87606 -1.37581,0.87224 -3.27977,2.29165 -4.23064,3.15274 -0.9542,0.86356 -2.60406,2.54229 -3.66588,3.72968 -1.06292,1.18737 -2.63624,3.32023 -3.4928,4.73965 -0.85878,1.42189 -2.17466,3.93812 -2.92692,5.59327 -0.75006,1.65764 -1.72756,3.98156 -2.17247,5.16399 -0.4427,1.18243 -1.25266,3.60313 -1.79412,5.3774 -0.54366,1.77675 -1.39799,5.16399 -1.89618,7.531327 -0.58806,2.86737 -1.0962,5.75333 -1.52338,8.65668 l -0.61468,4.35501 0.007,6.40226 0.007,6.40226 0.58361,2.79664 c 0.32066,1.53851 0.93756,3.86242 1.36583,5.16396 0.42829,1.30155 1.22492,3.23713 1.76748,4.30292 0.54257,1.0658 1.6998,2.77804 2.5719,3.81032 0.87098,1.02983 2.45205,2.59564 3.51054,3.47534 1.05628,0.87969 2.94025,2.12043 4.18403,2.75321 l 2.26233,1.1514 3.15439,0.85364 c 1.7342,0.46901 4.35269,1.02487 5.81837,1.23579 1.46125,0.20473 4.5646,0.40325 6.8924,0.43179 z m 7.24634,-60.614147 c -10.6515,0 -19.36684,-0.0844 -19.36684,-0.18986 0,-0.10304 0.45491,-1.60427 1.01079,-3.33511 0.55477,-1.72959 1.53115,-4.30291 2.16691,-5.7186 l 1.15946,-2.57703 2.54414,-2.83014 2.54526,-2.83262 2.50199,-1.33629 c 1.37471,-0.73575 3.19322,-1.53604 4.03979,-1.78046 0.84769,-0.24318 3.26979,-0.56578 5.38565,-0.71592 l 3.84896,-0.27668 2.95578,0.42557 2.95358,0.42433 2.14804,1.09932 2.14805,1.10053 1.17832,1.42064 c 0.64685,0.78045 1.41797,1.93184 1.71533,2.55471 l 0.53591,1.13652 0.35504,2.52245 0.35616,2.51994 -0.40719,4.19497 -0.40609,4.19744 h -19.36904 z m 115.11362,60.616627 4.23506,0.0521 4.80649,-0.63773 c 2.644,-0.34991 6.16343,-0.93057 7.82217,-1.29162 2.00381,-0.4504 3.99319,-0.97896 5.96372,-1.58196 1.62214,-0.51367 3.09003,-1.06828 3.26091,-1.23206 0.17197,-0.16502 0.62911,-2.11671 1.01855,-4.33889 0.38944,-2.22217 0.87874,-5.20121 1.08844,-6.62185 0.20859,-1.42067 0.31733,-2.65769 0.24077,-2.75076 -0.0777,-0.093 -0.36059,0.0273 -0.6302,0.26553 -0.26963,0.24072 -2.15693,1.12908 -4.19514,1.97527 l -3.70472,1.53852 -5.27692,1.14273 -5.27691,1.14274 -4.48472,-0.16999 -4.48583,-0.17123 -2.54859,-0.99011 -2.54858,-0.98887 -1.96831,-1.9244 -1.96719,-1.92688 -1.30702,-2.6614 -1.30593,-2.6589 -0.62355,-3.55971 -0.62244,-3.55723 0.005,-4.61681 0.003,-4.61682 0.75558,-5.59328 0.75671,-5.59577 0.79996,-3.012527 c 0.43938,-1.65639 0.93867,-3.59196 1.10621,-4.30167 0.16864,-0.71094 0.8732,-2.74328 1.56776,-4.52003 0.69345,-1.77426 1.93169,-4.51756 2.75053,-6.09456 l 1.48897,-2.86858 1.82963,-2.12044 1.8285,-2.12043 1.93612,-1.3425 1.93835,-1.34371 2.48756,-0.85736 c 1.36806,-0.47026 3.78683,-1.08318 5.37345,-1.35739 l 2.88701,-0.50374 4.23062,0.23698 4.23285,0.23698 5.00176,1.11915 5.00287,1.11793 2.03376,0.8499 c 1.1184,0.46528 2.08259,0.84991 2.14361,0.84991 0.0599,0 0.32842,-1.59808 0.59582,-3.55101 0.26851,-1.95046 0.7456,-5.16399 1.06071,-7.13676 0.31622,-1.97527 0.49818,-3.67509 0.40386,-3.77808 -0.0921,-0.10423 -1.59549,-0.37098 -3.33967,-0.5943 -1.74529,-0.22086 -6.48853,-0.61544 -10.5383,-0.87724 l -7.36618,-0.47271 -5.19591,0.4442 -5.19371,0.44665 -3.84895,0.90326 -3.84784,0.90451 -2.47759,1.10799 c -1.36361,0.60919 -3.35853,1.70974 -4.43589,2.44551 -1.03299,0.70226 -2.04819,1.4343 -3.04567,2.19611 -0.59914,0.47397 -2.41432,2.32021 -4.03646,4.10563 l -2.9458,3.24207 -1.64654,2.69491 c -0.90315,1.4827 -2.4687,4.57338 -3.47726,6.86876 l -1.83295,4.17388 -1.40577,4.5163 c -0.77223,2.48522 -1.8518,6.551137 -2.39658,9.036347 l -0.99303,4.51881 -0.3606,4.08826 -0.35948,4.08825 0.003,5.37739 0.004,5.3774 0.36282,3.12915 0.36281,3.12917 1.1528,3.21849 1.1517,3.21851 1.33253,2.32638 1.32922,2.32642 2.11587,2.33011 2.1181,2.32888 2.23792,1.32512 2.24124,1.3214 2.94026,0.91442 c 1.61659,0.50126 3.95436,1.0782 5.19482,1.28045 1.24045,0.20225 4.15851,0.39208 6.48852,0.4206 h -0.003 z m 63.29196,-0.15882 5.19371,-0.16751 3.27088,-0.93552 3.27089,-0.93801 2.11698,-1.11665 c 1.16391,-0.61417 3.06785,-1.8301 4.23065,-2.69987 1.16501,-0.86852 2.96799,-2.5212 4.00429,-3.67137 1.0374,-1.1514 2.57632,-3.11426 3.41955,-4.3637 0.84325,-1.24943 1.58442,-2.21349 1.64545,-2.14402 0.0644,0.0696 -0.13093,2.05718 -0.43162,4.41956 -0.29845,2.36362 -0.547,5.50641 -0.55144,6.98663 l -0.007,2.68746 h 14.12319 l 0.21525,-6.12929 0.21526,-6.13176 1.00743,-7.96064 c 0.55478,-4.37859 1.45016,-10.86521 1.99051,-14.41374 0.53811,-3.54854 1.47678,-9.55003 2.0848,-13.33802 0.60691,-3.788 1.56887,-9.692697 2.13584,-13.124607 l 1.03408,-6.23723 0.0354,-5.38979 0.0332,-5.38981 -1.08845,-2.49016 -1.08956,-2.49142 -1.47678,-1.58569 -1.479,-1.58691 -2.42433,-1.37228 -2.42765,-1.37473 -3.61596,-0.90078 -3.61595,-0.90078 -4.97735,-0.42185 -4.97845,-0.42434 -6.41086,0.44418 c -3.52941,0.24319 -8.49011,0.72461 -11.02981,1.06953 l -4.61788,0.62657 -3.14662,0.0137 -3.14662,0.0136 -0.45823,2.47529 c -0.25187,1.35986 -0.95198,4.59201 -1.55446,7.18392 -0.60469,2.59066 -1.04074,4.77315 -0.97306,4.84884 0.0676,0.0757 1.75085,-0.35113 3.73911,-0.94917 1.98828,-0.59929 6.21448,-1.58195 9.38885,-2.18868 l 5.77066,-1.0993 5.19481,-0.23824 5.19482,-0.23944 3.34633,0.65635 3.34746,0.65511 2.23236,1.23207 2.23349,1.2333 1.25044,2.08445 1.25155,2.08445 -0.0178,3.28425 -0.0188,3.28674 -0.66351,3.60437 -0.66348,3.60685 -13.84582,0.0559 -13.8447,0.0545 -4.53021,1.38964 c -2.492,0.7643 -5.2514,1.77922 -6.13237,2.2532 -0.88096,0.47769 -1.76192,0.86729 -1.95831,0.86729 -0.19527,0 -1.6776,0.9169 -3.29419,2.042257 l -2.93804,2.04103 -2.31337,2.58322 c -1.27373,1.4219 -2.89919,3.55102 -3.61373,4.73469 -0.71564,1.18243 -1.87621,3.654 -2.57966,5.49279 l -1.28039,3.34132 -0.58694,3.75698 -0.58805,3.75698 v 7.88494 l 0.56031,3.28301 0.56253,3.28303 1.04074,2.14029 c 0.57362,1.17623 1.62657,2.90209 2.33667,3.83265 l 1.29593,1.69237 2.30006,1.56334 2.30115,1.56459 2.63514,0.8313 c 1.44904,0.45783 3.65367,1.01368 4.90078,1.23579 l 2.26567,0.39827 5.1948,-0.16626 h -9.9e-4 z m 4.80981,-12.034 -3.07783,0.18117 -2.03933,-0.58193 c -1.12062,-0.31887 -2.82263,-1.02982 -3.78016,-1.5807 l -1.74084,-1.00252 -0.95198,-1.26432 c -0.5226,-0.69729 -1.32033,-2.06088 -1.77524,-3.03486 l -0.82439,-1.77179 -0.16088,-4.13541 -0.1631,-4.13665 0.6524,-2.50878 c 0.35838,-1.37847 1.20052,-3.7756 1.87177,-5.32156 l 1.21827,-2.81277 2.33445,-2.58945 2.33224,-2.59067 2.47646,-1.3338 2.47536,-1.33133 3.07783,-0.81888 3.07784,-0.8189 h 19.23923 l 0.60912,0.28289 0.60802,0.28042 -0.51148,3.37854 c -0.28183,1.85617 -0.95309,5.21486 -1.49455,7.46308 -0.53811,2.24947 -1.49119,5.55359 -2.11475,7.344 -0.62466,1.79162 -1.13616,3.37604 -1.13616,3.51874 0,0.14517 -0.63242,1.44918 -1.40576,2.90087 l -1.40578,2.63906 -2.30672,2.55719 c -1.26819,1.40451 -2.44762,2.55468 -2.61738,2.55468 -0.16976,0 -0.94754,0.48637 -1.72864,1.07698 l -1.41688,1.07447 -3.12109,1.10551 -3.12,1.10301 z m 125.24362,12.18662 3.6548,0.0521 3.46394,-0.62905 c 1.90506,-0.34494 4.32828,-0.90204 5.38675,-1.23703 1.0574,-0.33625 2.96356,-1.20354 4.23064,-1.93061 l 2.31005,-1.32263 1.98605,-1.95542 1.98494,-1.95542 2.09259,-3.11798 c 1.15057,-1.71597 2.19242,-3.40958 2.31446,-3.76567 l 0.22301,-0.64643 -0.19416,2.15145 c -0.13757,1.44051 -0.31511,2.87481 -0.53147,4.30416 -0.1875,1.18242 -0.45156,3.45795 -0.59138,5.05478 l -0.25517,2.90335 h 15.09624 v -5.80791 l 1.14947,-10.97317 c 0.63132,-6.035 1.56776,-14.06883 2.07815,-17.85682 0.51038,-3.788 1.29926,-9.20634 1.75305,-12.04642 0.45048,-2.84005 1.25377,-7.973007 1.7797,-11.402437 0.52812,-3.43067 1.4801,-9.43464 2.11697,-13.33802 0.63576,-3.90587 1.65541,-10.10214 2.26454,-13.76855 0.60802,-3.6689 1.55446,-9.38252 2.10256,-12.69408 0.54811,-3.31155 1.52782,-9.1232 2.17911,-12.90749 0.68236,-3.95053 1.38692,-7.89485 2.11476,-11.83298 0.51261,-2.71971 0.93091,-5.09325 0.92979,-5.2707 v -0.32383 h -16.46984 l -0.24299,2.68993 c -0.13314,1.47897 -0.76446,6.36752 -1.40024,10.86522 -0.75557,5.30917 -1.52447,10.61583 -2.30781,15.91878 -0.45601,3.05968 -0.90648,6.11936 -1.35363,9.18027 l -0.20636,1.43307 -0.64907,-0.30771 c -0.35728,-0.16999 -2.29563,-0.77174 -4.30498,-1.33628 l -3.65478,-1.02609 -5.00175,-0.43676 -5.00399,-0.43549 -4.23174,0.43921 -4.23174,0.44171 -3.84786,1.08814 -3.84784,1.0869 -3.65479,1.99387 -3.65701,1.99387 -2.69393,2.22716 -2.69283,2.22961 -2.32667,2.79167 c -1.2793,1.53232 -3.12666,4.07089 -4.10748,5.63672 l -1.77969,2.84999 -2.09257,4.86621 c -1.14947,2.67752 -2.5497,6.22233 -3.11001,7.87874 -0.56141,1.65763 -1.54891,5.328987 -2.19797,8.160387 l -1.17722,5.14909 -0.58028,6.68513 -0.57918,6.68391 0.43494,5.37739 0.43826,5.37987 0.51372,1.93557 c 0.28516,1.06455 0.88097,2.9629 1.327,4.21481 l 0.81217,2.28297 1.48122,2.24079 1.48233,2.24327 1.69092,1.54844 1.68981,1.54969 2.30894,1.28293 c 1.27151,0.70227 3.39959,1.61546 4.73436,2.02367 1.33143,0.4082 3.49612,0.89952 4.80981,1.08937 1.31256,0.19356 4.02981,0.37348 6.04138,0.40075 z m 6.56063,-12.20521 -2.90583,0.16997 -1.95943,-0.3933 c -1.07848,-0.21714 -2.8038,-0.8003 -3.83566,-1.2941 l -1.87399,-0.89707 -1.57775,-1.44671 -1.57664,-1.44423 -1.17165,-2.51002 -1.17278,-2.5088 -0.53479,-2.79664 -0.53258,-2.79788 0.0455,-5.59328 0.0444,-5.59329 0.62134,-4.94933 0.62022,-4.94687 0.96419,-3.44057 c 0.53146,-1.893387 0.9675,-3.681297 0.96972,-3.971627 0.004,-0.28786 0.52592,-1.8363 1.16389,-3.43934 0.74561,-1.85493 1.53337,-3.68874 2.36331,-5.49775 0.6646,-1.42067 1.90506,-3.63292 2.75496,-4.91958 0.85323,-1.28416 2.37217,-3.22095 3.37518,-4.30413 1.00302,-1.0782 2.59742,-2.49886 3.54606,-3.15025 l 1.72198,-1.18493 3.02569,-1.17001 3.02569,-1.17126 6.34872,-0.003 h 6.34873 l 3.65479,1.13528 c 2.01157,0.62286 4.1463,1.34621 4.74434,1.60677 l 1.08844,0.47396 -0.21191,1.17996 c -0.11539,0.65015 -0.57474,3.50509 -1.01633,6.34393 -0.44158,2.84007 -1.31369,8.26212 -1.93612,12.04889 -0.62246,3.78675 -1.57887,9.499137 -2.12587,12.692807 -0.54589,3.19367 -1.33698,7.26084 -1.7586,9.03388 -0.43271,1.8239 -0.87208,3.64532 -1.31923,5.46302 -0.30512,1.22957 -1.03185,3.36116 -1.61325,4.73342 -0.58252,1.37228 -1.60216,3.36864 -2.26567,4.43195 -0.6646,1.06457 -1.78412,2.54229 -2.49199,3.27929 -0.709,0.73949 -2.24125,2.04971 -3.40404,2.91452 l -2.11587,1.5745 -3.05897,1.08564 -3.05898,1.08568 z m -566.28135,10.11083 h 9.34779 l 0.67126,-4.62427 c 0.36836,-2.54478 1.08955,-7.43454 1.60105,-10.8652 l 2.11587,-14.19911 c 0.65241,-4.37859 1.63102,-10.86519 2.17358,-14.41373 0.54255,-3.54978 1.40577,-9.056197 1.91615,-12.235007 0.5115,-3.18251 1.02743,-5.89353 1.14504,-6.02504 l 0.21636,-0.24073 h 50.27608 l 0.27959,0.31267 0.27961,0.31268 -0.43715,2.48396 c -0.23855,1.3673 -0.94754,5.58088 -1.57443,9.368877 -0.62688,3.78677 -1.68094,10.17535 -2.34332,14.20034 -0.69568,4.23342 -1.40356,8.46313 -2.12364,12.6916 -0.50816,2.95793 -1.53559,9.15297 -2.28341,13.76856 -0.74672,4.61432 -1.35695,8.63186 -1.35473,8.9284 l 0.004,0.53723 h 18.77433 l 0.41497,-2.68744 c 0.22967,-1.47898 0.59581,-4.14162 0.81772,-5.91713 0.21968,-1.77551 0.75337,-5.55357 1.18276,-8.39117 0.42939,-2.83881 1.28705,-8.45567 1.90727,-12.47816 0.61912,-4.0225 1.65764,-10.8975 2.30561,-15.27607 0.64797,-4.3786 1.60881,-10.768437 2.13695,-14.197857 0.66795,-4.30789 1.36361,-8.61079 2.08591,-12.90748 0.62024,-3.6689 1.65432,-9.86394 2.29783,-13.77105 0.64354,-3.90338 1.60549,-9.80809 2.1403,-13.12336 0.53478,-3.31279 1.50895,-9.31551 2.16578,-13.33802 0.65685,-4.02249 1.48567,-8.71624 1.84183,-10.43467 l 0.64797,-3.11924 h -19.00957 l -0.25851,2.04476 c -0.14093,1.12162 -0.60025,4.26939 -1.01967,6.99161 -0.42051,2.72093 -1.18164,7.56109 -1.69425,10.75601 -0.5126,3.19616 -1.44905,9.29444 -2.08147,13.55514 -0.62022,4.17266 -1.21715,8.34901 -1.79077,12.53154 l -0.64132,4.78432 -13.95232,0.3164 -13.95343,0.31514 -11.68556,-0.31018 c -6.42751,-0.16998 -11.72217,-0.34369 -11.76655,-0.38464 -0.0433,-0.0423 0.17529,-1.71346 0.48596,-3.71603 0.40942,-2.58199 0.84546,-5.15779 1.30813,-7.7286 0.59028,-3.29542 1.1639,-6.59457 1.71977,-9.89867 0.53814,-3.19369 1.14614,-7.1616 1.35364,-8.81922 0.20637,-1.65517 0.64019,-4.41583 0.96306,-6.13179 0.32288,-1.7147 0.93534,-5.32899 1.3614,-8.0301 0.42494,-2.70233 0.87874,-5.2198 1.00855,-5.59327 l 0.233,-0.68365 h -18.85635 l -0.60247,3.76566 c -0.33286,2.0708 -0.77556,5.02254 -0.98416,6.56106 -0.20969,1.53728 -0.91203,6.47545 -1.5611,10.97192 -0.64908,4.49645 -1.60771,11.17664 -2.1303,14.84428 l -2.11142,14.84429 c -0.74228,5.17142 -1.52561,10.33417 -2.34777,15.48947 -0.68458,4.23342 -1.38247,8.464357 -2.09369,12.692817 -0.50039,2.95919 -1.45348,8.57357 -2.11919,12.47943 -0.6979,4.09197 -1.41798,8.18024 -2.15804,12.26355 -0.52148,2.83881 -1.09732,6.13051 -1.27928,7.31417 -0.18419,1.18244 -0.77889,4.59697 -1.32478,7.58469 -0.54477,2.98648 -0.9908,5.74589 -0.9908,6.13053 v 0.69729 h 9.34998 z m 103.49464,0 h 8.27599 l 0.23299,-0.67993 c 0.12982,-0.37593 0.23411,-1.35738 0.23411,-2.18125 0,-0.82633 0.52148,-5.1193 1.15613,-9.53885 1.45238,-10.07237 2.94027,-20.13729 4.46474,-30.19725 0.65352,-4.23839 1.34031,-8.46934 2.06263,-12.692837 0.61244,-3.54852 1.55334,-9.06862 2.09034,-12.26106 0.5359,-3.19492 1.59219,-9.27332 2.34554,-13.50922 0.75337,-4.23344 1.46348,-7.86759 1.57775,-8.07479 l 0.20971,-0.37843 -8.36917,0.11539 -8.36919,0.11539 -0.699,5.59577 c -0.38167,3.07579 -1.22048,9.17655 -1.86179,13.55267 -0.64019,4.37733 -1.60993,11.06 -2.1547,14.84428 -0.65907,4.526227 -1.36251,9.045027 -2.10811,13.555147 -0.61578,3.66763 -1.55888,9.28202 -2.09701,12.47695 -0.53701,3.19615 -1.50119,8.81176 -2.1425,12.4794 -0.6413,3.6689 -1.5012,8.50904 -1.91171,10.75727 -0.41164,2.24948 -0.85213,4.52376 -0.98082,5.05605 l -0.23191,0.96653 h 8.27598 z m 193.56842,0 h 8.21383 l 0.24743,-3.88727 c 0.13647,-2.13656 0.60025,-6.44566 1.03297,-9.57359 0.43272,-3.12791 1.31924,-9.36515 1.9683,-13.86037 0.82105,-5.55855 1.71534,-11.10343 2.68284,-16.63344 0.82771,-4.65032 1.76084,-9.273337 2.07594,-10.272127 0.31511,-0.9988 0.57362,-2.08198 0.57362,-2.40457 0,-0.32632 0.61801,-2.09312 1.37249,-3.92696 0.75448,-1.83507 2.16026,-4.6441 3.12555,-6.24344 l 1.75416,-2.90831 2.34665,-2.43187 2.34776,-2.42938 2.89366,-1.54595 2.89475,-1.54722 4.42592,0.0261 4.42258,0.0261 2.17579,0.72585 c 1.19607,0.3995 2.27897,0.72706 2.40434,0.72706 0.12648,0 0.22968,-0.4566 0.22968,-1.01616 0,-0.55711 0.43382,-3.39097 0.96195,-6.29679 0.52925,-2.9046 0.96196,-5.40344 0.96196,-5.55358 0,-0.15013 -1.25487,-0.69978 -2.78935,-1.22088 -1.53448,-0.52113 -3.65588,-1.06706 -4.71328,-1.2147 l -1.92392,-0.26553 -2.50088,0.49382 c -1.37581,0.27297 -3.42067,0.87226 -4.54462,1.33504 -1.12618,0.4628 -2.98242,1.51 -4.12745,2.32889 -1.14282,0.81889 -2.92472,2.41448 -3.95437,3.54481 -1.03297,1.13154 -2.76827,3.41327 -3.85782,5.06967 -0.84769,1.28666 -1.69093,2.57828 -2.52972,3.87238 l -0.55033,0.85984 0.33396,-1.72091 c 0.18418,-0.94794 0.69679,-4.04607 1.13837,-6.88491 0.44049,-2.84007 0.89761,-5.50394 1.00746,-5.91587 l 0.20637,-0.75438 h -14.67463 v 1.0385 c 0,0.56952 -0.43383,4.00637 -0.96085,7.63557 -0.53036,3.63288 -1.40354,9.69766 -1.93945,13.48565 -0.53702,3.78676 -1.49233,10.36892 -2.11921,14.62965 -0.67015,4.523757 -1.37582,9.042537 -2.12029,13.552667 -1.44796,8.61325 -2.92918,17.21906 -4.44368,25.81743 -0.64796,3.66889 -1.42352,7.99908 -1.72198,9.62819 -0.30069,1.62539 -0.54479,3.12544 -0.54479,3.33264 v 0.37843 z m 195.01079,0 h 8.39914 v -5.74961 l 0.9664,-7.12933 c 0.53368,-3.91953 1.41131,-10.13069 1.95387,-13.79709 0.54035,-3.6689 1.21494,-8.31423 1.49786,-10.32797 0.28405,-2.01002 1.0352,-6.36628 1.66763,-9.67907 0.63576,-3.31528 1.42686,-6.896057 1.76082,-7.960627 0.33508,-1.06456 0.60913,-2.1837 0.61246,-2.48395 0.005,-0.30028 0.72009,-2.23336 1.59218,-4.29548 l 1.58551,-3.74954 2.09367,-3.1093 2.09148,-3.10685 2.28785,-1.92439 c 1.2582,-1.05958 3.28309,-2.46162 4.50023,-3.12172 l 2.20908,-1.1973 4.8087,0.0361 4.80981,0.0385 1.89397,0.6787 1.89286,0.68116 0.31954,-0.22209 0.31843,-0.22085 0.0189,-1.37226 c 0.008,-0.75439 0.41941,-3.56466 0.91315,-6.24468 l 0.90093,-4.87117 -1.01188,-0.44171 c -0.96974,-0.40076 -1.94833,-0.77422 -2.93583,-1.11916 l -1.92281,-0.67868 -3.46283,0.0115 -3.46283,0.0101 -2.82265,1.1117 -2.82265,1.10923 -2.1192,1.42933 -2.11808,1.42935 -2.75497,3.22719 -2.75496,3.22717 -1.48011,2.50383 c -0.81328,1.37599 -1.53003,2.44179 -1.59217,2.3661 -0.0633,-0.0757 0.38056,-2.9443 0.98305,-6.37496 0.60247,-3.43314 1.10397,-6.67645 1.11285,-7.20874 l 0.0167,-0.969 h -14.23637 v 0.27543 c 0,0.15014 -0.35394,2.91079 -0.78887,6.13053 -0.43382,3.22345 -1.3059,9.43959 -1.93502,13.81819 -0.75669,5.23719 -1.52338,10.4719 -2.29894,15.70536 -0.67459,4.523757 -1.38359,9.042557 -2.12475,13.553907 -0.53367,3.19369 -1.48233,8.81053 -2.1081,12.47818 -0.62467,3.66889 -1.6532,9.57483 -2.28341,13.12462 l -1.85624,10.43219 -0.71121,3.97906 h 8.39691 z m -372.30241,-104.995647 2.33444,0.0101 1.85735,-0.70722 1.85846,-0.70722 1.64322,-1.86483 1.64431,-1.86361 0.86433,-2.48522 0.86654,-2.48398 0.03,-3.65771 0.0311,-3.65524 -0.7689,-1.42808 -0.77001,-1.42812 -1.33919,-0.92559 -1.34031,-0.92807 h -5.78509 l -1.96941,0.98638 -1.96942,0.98392 -1.14282,1.36978 -1.14281,1.36978 -0.89872,2.36734 -0.89761,2.36486 -0.16976,3.68625 -0.16864,3.68625 0.83437,1.83385 0.83657,1.83133 1.61326,0.81889 1.61214,0.81766 z" /></g></svg>