<?xml version="1.0" encoding="UTF-8" standalone="no"?>
<svg
   xmlns:dc="http://purl.org/dc/elements/1.1/"
   xmlns:cc="http://creativecommons.org/ns#"
   xmlns:rdf="http://www.w3.org/1999/02/22-rdf-syntax-ns#"
   xmlns:svg="http://www.w3.org/2000/svg"
   xmlns="http://www.w3.org/2000/svg"
   xmlns:sodipodi="http://sodipodi.sourceforge.net/DTD/sodipodi-0.dtd"
   xmlns:inkscape="http://www.inkscape.org/namespaces/inkscape"
   height="50"
   version="1.1"
   viewBox="0 0 70 50"
   width="70"
   xml:space="preserve"
   id="svg72"
   sodipodi:docname="maestro.svg"
   inkscape:version="0.92.3 (2405546, 2018-03-11)"><metadata
     id="metadata78"><rdf:RDF><cc:Work
         rdf:about=""><dc:format>image/svg+xml</dc:format><dc:type
           rdf:resource="http://purl.org/dc/dcmitype/StillImage" /><dc:title></dc:title></cc:Work></rdf:RDF></metadata><defs
     id="defs76" /><sodipodi:namedview
     pagecolor="#ffffff"
     bordercolor="#666666"
     borderopacity="1"
     objecttolerance="10"
     gridtolerance="10"
     guidetolerance="10"
     inkscape:pageopacity="0"
     inkscape:pageshadow="2"
     inkscape:window-width="1299"
     inkscape:window-height="713"
     id="namedview74"
     showgrid="false"
     inkscape:zoom="5.2149124"
     inkscape:cx="59.971536"
     inkscape:cy="42.309772"
     inkscape:window-x="67"
     inkscape:window-y="27"
     inkscape:window-maximized="1"
     inkscape:current-layer="svg72" /><g
     id="card_x2C__credit_x2C__vector_x2C__Maestro_x2C_"
     transform="matrix(0.18471769,0,0,0.17899587,-12.57783,-22.113222)"><g
       id="g68"><path
         d="m 436.84658,298.06716 c 0,2.32518 -5.27469,4.19958 -11.81789,4.19958 H 93.289402 c -6.543199,0 -11.817893,-1.8744 -11.817893,-4.19958 v -70.52244 c 0,-2.32675 5.274694,-4.20115 11.817893,-4.20115 H 425.02869 c 6.5432,0 11.81789,1.8744 11.81789,4.20115 z"
         style="clip-rule:evenodd;fill:#ffffff;fill-rule:evenodd;stroke-width:0.44143495"
         id="path2"
         inkscape:connector-curvature="0" /><polygon
         points="227.055,258.615 227.412,263.397 289.092,263.397 289.092,258.615 "
         style="clip-rule:evenodd;fill:#eb2230;fill-rule:evenodd"
         id="polygon18"
         transform="matrix(1.2979885,0,0,1.2979885,-73.696429,-70.499266)" /><polygon
         points="388.646,308.118 388.646,308.753 387.924,308.753 387.924,307.669 389.545,307.669 389.908,307.761 390.18,307.761 390.451,307.848 390.723,307.94 390.9,308.118 390.992,308.304 391.078,308.482 391.078,308.753 390.357,308.753 390.357,308.575 390.266,308.482 390.18,308.39 390.088,308.304 389.994,308.212 389.816,308.212 389.725,308.118 389.545,308.118 "
         style="clip-rule:evenodd;fill:#eb2230;fill-rule:evenodd"
         id="polygon32" /><polygon
         points="386.119,308.753 386.027,308.84 386.027,309.475 385.213,309.475 385.213,308.753 "
         style="clip-rule:evenodd;fill:#eb2230;fill-rule:evenodd"
         id="polygon34" /><polygon
         points="391.078,309.024 391.078,309.203 390.992,309.382 390.9,309.475 387.924,309.475 387.924,308.753 388.646,308.753 388.646,309.296 389.367,309.296 389.637,309.296 389.816,309.296 389.994,309.296 390.18,309.203 390.266,309.203 390.357,309.024 390.357,308.933 390.357,308.753 391.078,308.753 "
         style="clip-rule:evenodd;fill:#eb2230;fill-rule:evenodd"
         id="polygon36"
         transform="matrix(1.2979885,0,0,1.2979885,-73.696429,-70.499266)" /><polygon
         points="392.607,308.753 393.52,308.753 393.605,309.475 392.707,309.475 392.607,308.84 "
         style="clip-rule:evenodd;fill:#eb2230;fill-rule:evenodd"
         id="polygon38" /><polygon
         points="385.127,281.161 385.127,280.798 388.467,280.798 388.467,281.161 387.203,281.161 387.203,283.952 386.482,283.952 386.482,281.161 "
         style="clip-rule:evenodd;fill:#ffffff;fill-rule:evenodd"
         id="polygon58" /><g
         id="g97"><polygon
           transform="matrix(1.2979885,0,0,1.2979885,-73.696429,-70.499266)"
           id="polygon4"
           style="clip-rule:evenodd;fill:#eb2230;fill-rule:evenodd"
           points="357.893,329.673 361.41,327.417 364.744,324.983 367.998,322.458 371.152,319.665 374.129,316.868 377.012,313.8 379.717,310.737 382.33,307.49 384.678,304.064 386.932,300.546 389.008,296.941 390.9,293.245 392.607,289.455 394.148,285.487 395.59,281.519 396.668,277.372 397.66,273.226 398.473,268.985 398.924,264.66 399.287,260.236 399.465,255.818 399.287,251.4 398.924,247.075 398.473,242.743 397.66,238.504 396.668,234.357 395.59,230.303 394.148,226.335 392.607,222.459 390.9,218.67 389.008,214.88 386.932,211.276 384.678,207.85 382.33,204.424 379.717,201.177 377.012,198.107 374.129,195.039 371.152,192.248 367.998,189.543 364.744,186.931 361.41,184.583 357.893,182.328 354.287,180.258 350.592,178.36 346.715,176.647 342.834,175.113 338.779,173.764 334.725,172.593 330.486,171.601 326.246,170.874 322.008,170.337 317.59,169.975 313.172,169.882 308.66,169.975 304.336,170.337 300.004,170.874 295.764,171.601 291.617,172.593 287.471,173.764 283.502,175.113 279.535,176.647 275.744,178.36 272.049,180.258 268.443,182.328 264.926,184.583 261.586,186.931 258.344,189.543 255.189,192.248 252.213,195.039 249.324,198.107 246.625,201.177 244.098,204.424 241.658,207.85 239.502,211.276 237.42,214.88 235.533,218.67 233.814,222.459 232.279,226.335 230.838,230.303 229.754,234.357 228.768,238.504 228.041,242.743 227.498,247.075 227.141,251.4 227.055,255.818 227.141,260.236 227.498,264.66 228.041,268.985 228.768,273.226 229.754,277.372 230.838,281.519 232.279,285.487 233.814,289.455 235.533,293.245 237.42,296.941 239.502,300.546 241.658,304.064 244.098,307.49 246.625,310.737 249.324,313.8 252.213,316.868 255.189,319.665 258.344,322.458 261.586,324.983 264.926,327.417 268.443,329.673 272.049,331.749 275.744,333.641 279.535,335.353 283.502,336.888 287.471,338.237 291.617,339.414 295.764,340.405 300.004,341.126 304.336,341.663 308.66,342.026 313.172,342.119 317.59,342.026 322.008,341.663 326.246,341.126 330.486,340.405 334.725,339.414 338.779,338.237 342.834,336.888 346.715,335.353 350.592,333.641 354.287,331.749 " /><polygon
           transform="matrix(1.2979885,0,0,1.2979885,-73.696429,-70.499266)"
           id="polygon6"
           style="clip-rule:evenodd;fill:#0b84c4;fill-rule:evenodd"
           points="243.557,329.673 247.068,327.417 250.494,324.983 253.748,322.458 256.811,319.665 259.873,316.868 262.67,313.8 265.375,310.737 267.9,307.49 270.336,304.064 272.59,300.546 274.66,296.941 276.559,293.245 278.271,289.455 279.807,285.487 281.156,281.519 282.24,277.372 283.232,273.226 284.039,268.985 284.58,264.66 284.852,260.236 285.037,255.818 284.852,251.4 284.58,247.075 284.039,242.743 283.232,238.504 282.24,234.357 281.156,230.303 279.807,226.335 278.271,222.459 276.559,218.67 274.66,214.88 272.59,211.276 270.336,207.85 267.9,204.424 265.375,201.177 262.67,198.107 259.873,195.039 256.811,192.248 253.748,189.543 250.494,186.931 247.068,184.583 243.557,182.328 239.945,180.258 236.248,178.36 232.465,176.647 228.584,175.113 224.529,173.764 220.469,172.593 216.236,171.601 211.996,170.874 207.756,170.337 203.332,169.975 198.922,169.882 194.41,169.975 190.086,170.337 185.754,170.874 181.521,171.601 177.367,172.593 173.215,173.764 169.252,175.113 165.285,176.647 161.496,178.36 157.799,180.258 154.102,182.328 150.676,184.583 147.25,186.931 144.002,189.543 140.842,192.248 137.871,195.039 135.074,198.107 132.275,201.177 129.756,204.424 127.322,207.85 125.068,211.276 122.992,214.88 121.1,218.67 119.387,222.459 117.857,226.335 116.502,230.303 115.332,234.357 114.334,238.504 113.613,242.743 113.076,247.075 112.713,251.4 112.621,255.818 112.713,260.236 113.076,264.66 113.613,268.985 114.334,273.226 115.332,277.372 116.502,281.519 117.857,285.487 119.387,289.455 121.1,293.245 122.992,296.941 125.068,300.546 127.322,304.064 129.756,307.49 132.275,310.737 135.074,313.8 137.871,316.868 140.842,319.665 144.002,322.458 147.25,324.983 150.676,327.417 154.102,329.673 157.799,331.749 161.496,333.641 165.285,335.353 169.252,336.888 173.215,338.237 177.367,339.414 181.521,340.405 185.754,341.126 190.086,341.663 194.41,342.026 198.922,342.119 203.332,342.026 207.756,341.663 211.996,341.126 216.236,340.405 220.469,339.414 224.529,338.237 228.584,336.888 232.465,335.353 236.248,333.641 239.945,331.749 " /><polygon
           transform="matrix(1.2979885,0,0,1.2979885,-73.696429,-70.499266)"
           id="polygon8"
           style="clip-rule:evenodd;fill:#eb2230;fill-rule:evenodd"
           points="249.594,197.837 245.453,202.618 289.092,202.618 289.092,197.837 " /><polygon
           transform="matrix(1.2979885,0,0,1.2979885,-73.696429,-70.499266)"
           id="polygon10"
           style="clip-rule:evenodd;fill:#eb2230;fill-rule:evenodd"
           points="241.572,208.028 238.596,212.81 289.092,212.81 289.092,208.028 " /><polygon
           transform="matrix(1.2979885,0,0,1.2979885,-73.696429,-70.499266)"
           id="polygon12"
           style="clip-rule:evenodd;fill:#eb2230;fill-rule:evenodd"
           points="235.805,218.398 233.451,223.18 289.092,223.18 289.092,218.398 " /><polygon
           transform="matrix(1.2979885,0,0,1.2979885,-73.696429,-70.499266)"
           id="polygon14"
           style="clip-rule:evenodd;fill:#eb2230;fill-rule:evenodd"
           points="231.559,228.59 230.117,233.365 289.092,233.365 289.092,228.59 " /><polygon
           transform="matrix(1.2979885,0,0,1.2979885,-73.696429,-70.499266)"
           id="polygon16"
           style="clip-rule:evenodd;fill:#eb2230;fill-rule:evenodd"
           points="228.768,238.775 227.863,243.648 289.092,243.648 289.092,238.775 " /><polygon
           transform="matrix(1.2979885,0,0,1.2979885,-73.696429,-70.499266)"
           id="polygon20"
           style="clip-rule:evenodd;fill:#eb2230;fill-rule:evenodd"
           points="228.041,269.35 228.947,274.218 289.092,274.218 289.092,269.35 " /><polygon
           transform="matrix(1.2979885,0,0,1.2979885,-73.696429,-70.499266)"
           id="polygon22"
           style="clip-rule:evenodd;fill:#eb2230;fill-rule:evenodd"
           points="230.389,278.093 231.838,282.961 289.092,282.961 289.092,278.093 " /><polygon
           transform="matrix(1.2979885,0,0,1.2979885,-73.696429,-70.499266)"
           id="polygon24"
           style="clip-rule:evenodd;fill:#eb2230;fill-rule:evenodd"
           points="233.906,288.734 236.162,293.603 289.092,293.603 289.092,288.734 " /><polygon
           transform="matrix(1.2979885,0,0,1.2979885,-73.696429,-70.499266)"
           id="polygon26"
           style="clip-rule:evenodd;fill:#eb2230;fill-rule:evenodd"
           points="239.139,299.554 242.385,304.335 289.092,304.335 289.092,299.554 " /><polygon
           transform="matrix(1.2979885,0,0,1.2979885,-73.696429,-70.499266)"
           id="polygon28"
           style="clip-rule:evenodd;fill:#eb2230;fill-rule:evenodd"
           points="245.811,309.924 250.051,314.706 288.641,314.706 288.641,309.924 " /><polygon
           transform="matrix(1.2979885,0,0,1.2979885,-73.696429,-70.499266)"
           id="polygon30"
           style="clip-rule:evenodd;fill:#eb2230;fill-rule:evenodd"
           points="386.568,307.577 386.297,308.212 386.119,308.753 385.213,308.753 385.484,307.94 385.939,307.219 386.482,306.591 387.111,306.135 387.74,305.685 388.553,305.507 389.367,305.414 390.18,305.507 390.992,305.685 391.707,306.135 392.342,306.591 392.879,307.219 393.242,307.94 393.52,308.753 392.607,308.753 392.436,308.212 392.164,307.577 391.707,307.04 391.264,306.677 390.723,306.405 390.088,306.135 389.367,306.135 388.738,306.135 388.012,306.405 387.475,306.677 386.932,307.04 " /><polygon
           transform="matrix(1.2979885,0,0,1.2979885,-73.696429,-70.499266)"
           id="polygon40"
           style="clip-rule:evenodd;fill:#eb2230;fill-rule:evenodd"
           points="385.127,309.562 385.213,310.467 385.484,311.273 385.939,311.908 386.482,312.536 387.111,312.993 387.74,313.351 388.553,313.621 389.367,313.714 390.18,313.621 390.992,313.351 391.707,312.993 392.342,312.536 392.879,311.908 393.242,311.273 393.52,310.467 393.605,309.562 393.605,309.475 392.707,309.475 392.707,309.562 392.607,310.374 392.436,311.009 392.164,311.638 391.707,312.087 391.264,312.536 390.723,312.808 390.088,313.079 389.367,313.079 388.738,313.079 388.012,312.808 387.475,312.536 386.932,312.087 386.568,311.638 386.297,311.009 386.027,310.374 386.027,309.562 386.027,309.475 385.213,309.475 " /><polygon
           transform="matrix(1.2979885,0,0,1.2979885,-73.696429,-70.499266)"
           id="polygon42"
           style="clip-rule:evenodd;fill:#eb2230;fill-rule:evenodd"
           points="389.908,309.745 390.18,309.745 390.451,309.745 390.629,309.653 390.809,309.475 390.9,309.475 387.924,309.475 387.924,311.188 388.646,311.188 388.646,309.745 389.367,309.745 390.266,311.188 390.992,311.188 " /><polygon
           transform="matrix(1.2979885,0,0,1.2979885,-73.696429,-70.499266)"
           id="polygon44"
           style="clip-rule:evenodd;fill:#ffffff;fill-rule:evenodd"
           points="262.133,272.142 262.49,272.233 263.033,272.412 263.57,272.505 264.297,272.683 265.012,272.862 265.824,273.047 266.824,273.226 267.723,273.403 268.807,273.497 269.793,273.675 270.963,273.768 272.049,273.854 273.219,273.946 274.488,273.946 275.658,273.946 276.83,273.946 278,273.675 278.9,273.403 279.627,272.954 280.17,272.412 280.613,271.87 280.885,271.241 281.156,270.606 281.34,269.978 281.426,269.35 281.426,268.715 281.248,268.173 281.068,267.723 280.705,267.273 280.348,266.91 279.898,266.553 279.355,266.188 278.721,265.924 278.086,265.561 277.371,265.289 276.65,265.018 275.93,264.747 275.117,264.389 274.303,264.118 273.49,263.754 272.684,263.397 271.869,263.034 271.148,262.584 270.336,262.135 269.621,261.685 268.895,261.143 268.266,260.508 267.723,259.879 267.18,259.158 266.639,258.345 266.281,257.445 265.924,256.539 265.738,255.461 265.561,254.377 265.561,253.113 265.652,251.764 265.738,250.951 265.824,250.137 265.924,249.417 266.096,248.695 266.281,247.975 266.459,247.254 266.73,246.625 267.002,245.904 267.268,245.362 267.631,244.728 267.994,244.191 268.352,243.648 268.807,243.193 269.258,242.657 269.707,242.201 270.25,241.844 270.791,241.394 271.42,241.03 272.049,240.673 272.775,240.401 273.49,240.038 274.217,239.768 275.023,239.589 275.838,239.317 276.744,239.139 277.729,238.96 278.629,238.868 279.713,238.688 280.797,238.597 281.883,238.597 283.053,238.504 284.311,238.504 285.758,238.504 287.107,238.504 288.371,238.597 289.455,238.597 290.447,238.688 291.348,238.775 292.16,238.868 292.881,238.868 293.516,238.96 294.145,239.047 294.686,239.139 295.129,239.23 295.494,239.23 295.857,239.317 296.215,239.41 296.486,239.41 294.502,248.604 293.959,248.517 293.33,248.517 292.881,248.424 292.344,248.338 291.797,248.246 291.348,248.153 290.805,248.067 290.176,247.975 289.633,247.975 289.006,247.882 288.279,247.796 287.563,247.796 286.658,247.796 285.758,247.796 284.674,247.882 283.596,247.975 282.781,248.067 281.969,248.246 281.248,248.517 280.613,248.788 280.076,249.059 279.535,249.417 279.172,249.78 278.814,250.137 278.543,250.68 278.357,251.129 278.271,251.58 278.271,252.121 278.451,252.664 278.629,253.206 278.9,253.748 279.355,254.291 280.17,255.012 281.068,255.547 282.24,256.09 283.41,256.539 284.766,256.903 286.029,257.354 287.379,257.895 288.734,258.438 289.904,259.065 291.074,259.879 292.068,260.964 292.973,262.221 293.602,263.754 294.051,265.561 294.145,267.723 294.051,270.249 293.688,272.142 293.244,273.854 292.518,275.388 291.703,276.743 290.805,277.915 289.727,278.906 288.549,279.806 287.293,280.619 286.029,281.247 284.674,281.697 283.324,282.153 281.883,282.419 280.527,282.695 279.172,282.782 277.822,282.874 276.559,282.961 274.846,282.961 273.219,282.874 271.777,282.874 270.428,282.874 269.258,282.782 268.172,282.695 267.18,282.695 266.281,282.511 265.375,282.419 264.568,282.24 263.842,282.153 263.127,281.968 262.49,281.697 261.77,281.519 261.049,281.247 260.328,281.069 " /><polygon
           transform="matrix(1.2979885,0,0,1.2979885,-73.696429,-70.499266)"
           id="polygon46"
           style="clip-rule:evenodd;fill:#ffffff;fill-rule:evenodd"
           points="307.848,271.42 307.848,271.87 307.939,272.233 308.033,272.591 308.205,272.862 308.391,273.133 308.66,273.403 308.932,273.583 309.289,273.768 309.652,273.854 310.016,273.946 310.373,274.032 310.824,274.124 311.273,274.124 311.814,274.218 312.266,274.218 313.172,274.218 313.984,274.124 314.699,274.032 315.334,273.854 315.783,273.768 316.146,273.583 316.412,273.497 316.512,273.497 315.334,281.161 315.063,281.341 314.699,281.519 314.428,281.611 314.07,281.79 313.799,281.882 313.443,281.968 313.078,282.153 312.721,282.24 312.357,282.332 311.902,282.419 311.459,282.511 310.916,282.604 310.373,282.695 309.832,282.782 309.111,282.874 308.477,282.961 305.414,282.961 303.793,282.782 302.352,282.695 301.082,282.419 300.004,282.153 299.012,281.79 298.291,281.341 297.57,280.891 297.027,280.349 296.67,279.72 296.307,279.085 296.127,278.364 296.041,277.551 295.943,276.743 296.041,275.838 296.127,274.938 296.215,273.946 303.793,229.668 315.156,229.668 313.443,239.503 320.381,239.503 318.852,248.604 311.637,248.424 307.939,270.97 " /><polygon
           transform="matrix(1.2979885,0,0,1.2979885,-73.696429,-70.499266)"
           id="polygon48"
           style="clip-rule:evenodd;fill:#ffffff;fill-rule:evenodd"
           points="206.672,248.424 206.223,248.338 205.773,248.246 204.602,248.246 203.332,248.246 202.076,248.338 200.813,248.424 199.463,248.517 198.201,248.604 196.844,248.788 195.582,248.874 194.41,249.059 193.24,249.238 192.156,249.417 191.164,249.688 190.35,249.866 189.543,250.137 189,250.322 188.551,250.588 191.434,240.944 192.34,240.58 193.24,240.217 194.139,239.952 195.133,239.682 196.123,239.41 197.115,239.317 198.201,239.139 199.279,239.047 200.449,238.96 201.627,238.96 202.797,238.868 204.061,238.868 205.324,238.868 206.586,238.868 208.027,238.96 209.383,238.96 210.555,239.047 211.811,239.23 213.08,239.503 214.338,239.952 215.602,240.401 216.863,240.944 218.035,241.665 219.205,242.472 220.203,243.378 221.189,244.37 222.002,245.448 222.545,246.712 222.994,247.975 223.266,249.417 223.359,250.951 223.086,252.664 218.848,273.946 217.221,282.961 207.029,282.961 207.129,282.062 207.301,281.247 207.393,280.44 207.486,279.806 207.572,279.177 207.664,278.636 207.844,278.271 207.936,278.093 207.393,278.722 206.672,279.356 205.951,279.985 205.051,280.526 204.146,281.069 203.16,281.611 202.076,282.062 200.904,282.419 199.734,282.782 198.563,283.146 197.381,283.324 196.209,283.503 195.039,283.595 193.869,283.682 192.697,283.595 191.613,283.417 190.172,283.054 188.914,282.604 187.738,282.062 186.746,281.433 185.846,280.798 185.033,280.077 184.398,279.265 183.77,278.456 183.32,277.644 182.963,276.743 182.6,275.838 182.328,274.938 182.236,273.946 182.057,273.047 182.057,272.142 181.963,271.241 182.15,269.707 182.328,268.173 182.691,266.73 183.227,265.382 183.947,264.118 184.676,262.941 185.574,261.771 186.475,260.779 187.559,259.879 188.645,258.974 189.814,258.252 191.07,257.624 192.34,256.989 193.689,256.539 195.039,256.274 196.395,256.004 196.48,256.004 196.666,256.004 197.023,255.911 197.381,255.911 197.922,255.818 198.465,255.732 199.1,255.641 199.734,255.641 200.449,255.547 201.078,255.461 201.805,255.461 202.525,255.369 203.16,255.276 203.697,255.276 204.238,255.276 204.689,255.276 205.23,255.276 205.686,255.276 206.131,255.276 206.672,255.276 207.129,255.276 207.572,255.276 208.027,255.276 208.479,255.276 208.928,255.369 209.285,255.369 209.557,255.369 209.92,255.369 210.098,255.369 210.283,255.369 210.369,255.369 210.463,255.098 210.727,254.47 210.826,253.656 210.826,252.936 210.826,252.393 210.727,251.942 210.555,251.493 210.369,251.043 210.098,250.68 209.828,250.322 209.557,249.959 209.199,249.601 208.842,249.33 208.479,249.146 208.027,248.874 207.664,248.695 207.215,248.517 " /><polygon
           transform="matrix(1.2979885,0,0,1.2979885,-73.696429,-70.499266)"
           id="polygon50"
           style="clip-rule:evenodd;fill:#0b84c4;fill-rule:evenodd"
           points="204.061,262.763 203.432,262.855 202.797,263.034 202.162,263.127 201.719,263.213 201.262,263.397 200.992,263.483 200.635,263.576 200.271,263.754 199.734,263.934 199.279,264.118 198.736,264.389 198.201,264.66 197.652,265.018 197.115,265.382 196.666,265.831 196.123,266.281 195.766,266.73 195.311,267.273 195.039,267.901 194.867,268.536 194.682,269.257 194.59,270.606 194.867,271.69 195.133,272.505 195.674,273.133 196.303,273.583 196.938,273.854 197.652,274.032 198.293,274.032 199.551,274.032 200.721,273.946 201.719,273.675 202.617,273.497 203.518,273.133 204.238,272.862 204.959,272.412 205.502,272.048 206.045,271.599 206.586,271.063 206.943,270.606 207.301,270.157 207.572,269.707 207.756,269.257 207.936,268.807 208.115,268.357 208.207,267.723 208.385,267.094 208.479,266.373 208.656,265.646 208.75,265.018 208.842,264.389 209.02,263.754 209.113,263.213 209.113,263.034 208.928,262.855 208.656,262.763 208.299,262.677 207.756,262.584 207.301,262.584 206.672,262.584 206.045,262.584 205.416,262.584 204.689,262.677 " /><polygon
           transform="matrix(1.2979885,0,0,1.2979885,-73.696429,-70.499266)"
           id="polygon52"
           style="clip-rule:evenodd;fill:#ffffff;fill-rule:evenodd"
           points="142.832,276.829 142.469,270.521 142.023,263.305 141.66,256.004 141.297,249.601 141.027,244.999 140.939,243.015 140.842,243.015 140.754,243.015 140.668,243.015 140.484,243.015 140.398,243.015 140.305,243.015 140.484,243.015 133.453,282.961 122.363,282.961 131.648,229.668 150.945,229.668 152.844,261.32 165.92,229.668 185.932,229.668 176.555,282.961 165.557,282.961 172.5,243.015 172.045,243.015 155.635,282.961 143.195,282.961 143.104,281.247 " /><polygon
           transform="matrix(1.2979885,0,0,1.2979885,-73.696429,-70.499266)"
           id="polygon54"
           style="clip-rule:evenodd;fill:#ffffff;fill-rule:evenodd"
           points="338.508,243.735 337.879,244.456 337.338,245.177 336.709,245.99 336.166,246.804 337.516,239.503 325.975,239.41 318.396,282.961 329.857,282.961 333.818,259.879 333.998,258.974 334.182,258.166 334.453,257.26 334.725,256.453 334.99,255.641 335.439,254.826 335.896,254.105 336.438,253.385 337.066,252.756 337.787,252.215 338.686,251.672 339.68,251.222 340.764,250.865 342.02,250.588 343.469,250.408 345.088,250.322 345.182,250.322 345.359,250.322 345.631,250.408 345.809,250.408 345.988,250.408 346.174,250.408 346.352,250.501 346.443,250.322 346.531,249.78 346.629,249.059 346.895,248.153 347.164,247.075 347.436,245.99 347.887,244.82 348.244,243.735 348.607,242.929 348.971,242.201 349.328,241.48 349.686,240.759 350.055,240.131 350.326,239.682 350.498,239.317 350.592,239.23 350.498,239.23 350.412,239.139 350.227,239.139 349.869,239.047 349.6,239.047 349.328,238.96 348.971,238.96 348.699,238.96 347.436,239.047 346.352,239.139 345.273,239.41 344.275,239.682 343.375,239.952 342.563,240.401 341.756,240.852 341.121,241.301 340.406,241.844 339.68,242.386 339.137,243.015 " /><path
           inkscape:connector-curvature="0"
           id="path56"
           style="clip-rule:evenodd;fill:#ffffff;fill-rule:evenodd;stroke-width:1.29798853"
           d="m 424.21198,246.56948 0.92806,0.93716 0.82423,0.93455 0.81643,1.05526 c 7.02731,9.82966 6.67816,24.34637 0.70221,34.64721 -5.50347,9.47661 -16.73885,14.39599 -27.50308,14.27528 -20.01757,-0.11163 -30.31322,-20.94694 -23.88039,-40.49205 l 0.59058,-1.40833 c 7.59584,-17.6747 32.53409,-23.17688 47.52196,-9.94908 z" /><polygon
           transform="matrix(1.2979885,0,0,1.2979885,-73.696429,-70.499266)"
           id="polygon60"
           style="clip-rule:evenodd;fill:#ffffff;fill-rule:evenodd"
           points="393.334,280.798 393.334,283.952 392.521,283.952 392.521,281.519 391.438,283.952 390.809,283.952 389.637,281.519 389.637,283.952 388.91,283.952 388.91,280.798 389.908,280.798 391.078,283.231 392.25,280.798 " /><path
           inkscape:connector-curvature="0"
           id="path62"
           style="clip-rule:evenodd;fill:#eb2230;fill-rule:evenodd;stroke-width:1.29798853"
           d="m 411.56568,275.36147 c 2.45709,-5.50088 4.21587,-14.39469 0.69443,-19.77746 -2.68685,-4.09385 -8.0696,-4.4469 -12.17124,-1.99111 -5.96556,3.63177 -8.42136,11.9402 -7.83856,19.08173 1.05786,13.8119 14.98787,12.63592 19.31537,2.68684 z" /><path
           inkscape:connector-curvature="0"
           id="path64"
           style="clip-rule:evenodd;fill:#ffffff;fill-rule:evenodd;stroke-width:1.29798853"
           d="m 265.14219,271.38703 c 1.75228,-9.24558 5.85652,-31.95908 -20.95343,-31.95908 -25.28352,0 -28.56094,25.28093 -28.56094,28.56095 -0.81644,3.39813 -0.81644,28.55963 25.99222,28.55963 6.78199,0 16.02757,-0.81643 20.12142,-2.45579 l 2.57521,-11.82078 c -2.57521,0.81643 -10.88364,1.75228 -17.67472,1.75228 -5.84614,0 -15.91593,0 -14.26748,-12.63592 h 32.76772 z" /><path
           inkscape:connector-curvature="0"
           id="path66"
           style="clip-rule:evenodd;fill:#0b84c4;fill-rule:evenodd;stroke-width:1.29798853"
           d="m 232.37577,260.50339 h 19.30757 c 2.22346,-15.22151 -16.26898,-12.29324 -19.30757,0 z" /></g></g></g><g
     id="Layer_1"
     transform="translate(0,-462)" /></svg>