<?xml version="1.0" encoding="UTF-8" standalone="no"?>
<svg
   xmlns:dc="http://purl.org/dc/elements/1.1/"
   xmlns:cc="http://creativecommons.org/ns#"
   xmlns:rdf="http://www.w3.org/1999/02/22-rdf-syntax-ns#"
   xmlns:svg="http://www.w3.org/2000/svg"
   xmlns="http://www.w3.org/2000/svg"
   xmlns:sodipodi="http://sodipodi.sourceforge.net/DTD/sodipodi-0.dtd"
   xmlns:inkscape="http://www.inkscape.org/namespaces/inkscape"
   width="70"
   height="50"
   enable-background="new 0 0 780 500"
   version="1.1"
   viewBox="0 0 70 50"
   xml:space="preserve"
   id="svg6"
   sodipodi:docname="visa.svg"
   inkscape:version="0.92.3 (2405546, 2018-03-11)"><metadata
     id="metadata12"><rdf:RDF><cc:Work
         rdf:about=""><dc:format>image/svg+xml</dc:format><dc:type
           rdf:resource="http://purl.org/dc/dcmitype/StillImage" /><dc:title></dc:title></cc:Work></rdf:RDF></metadata><defs
     id="defs10" /><sodipodi:namedview
     pagecolor="#ffffff"
     bordercolor="#666666"
     borderopacity="1"
     objecttolerance="10"
     gridtolerance="10"
     guidetolerance="10"
     inkscape:pageopacity="0"
     inkscape:pageshadow="2"
     inkscape:window-width="1299"
     inkscape:window-height="713"
     id="namedview8"
     showgrid="false"
     inkscape:zoom="2.6700352"
     inkscape:cx="121.00872"
     inkscape:cy="48.272263"
     inkscape:window-x="67"
     inkscape:window-y="27"
     inkscape:window-maximized="1"
     inkscape:current-layer="svg6" /><g
     id="g16"
     transform="matrix(0.10568645,0,0,0.11231996,-6.9995904,-3.8559705)"><path
       id="path2"
       d="m 293.2,348.73 33.359,-195.76 h 53.358 L 346.533,348.73 Z M 539.31,157.19 c -10.569,-3.966 -27.135,-8.222 -47.821,-8.222 -52.726,0 -89.863,26.551 -90.181,64.604 -0.297,28.129 26.515,43.822 46.754,53.185 20.771,9.598 27.752,15.716 27.652,24.283 -0.133,13.123 -16.586,19.115 -31.924,19.115 -21.355,0 -32.701,-2.967 -50.225,-10.273 l -6.878,-3.111 -7.487,43.822 c 12.463,5.467 35.508,10.199 59.438,10.445 56.09,0 92.502,-26.248 92.916,-66.885 0.199,-22.27 -14.016,-39.215 -44.801,-53.188 -18.65,-9.056 -30.072,-15.099 -29.951,-24.269 0,-8.137 9.668,-16.838 30.56,-16.838 17.446,-0.271 30.088,3.534 39.936,7.5 l 4.781,2.259 7.231,-42.427 m 137.31,-4.223 h -41.23 c -12.772,0 -22.332,3.486 -27.94,16.234 l -79.245,179.4 h 56.031 c 0,0 9.159,-24.121 11.231,-29.418 6.123,0 60.555,0.084 68.336,0.084 1.596,6.854 6.492,29.334 6.492,29.334 h 49.512 L 676.62,152.961 Z m -65.417,126.41 c 4.414,-11.279 21.26,-54.724 21.26,-54.724 -0.314,0.521 4.381,-11.334 7.074,-18.684 l 3.606,16.878 c 0,0 10.217,46.729 12.353,56.527 h -44.293 z m -363.3,-126.41 -52.239,133.5 -5.565,-27.129 c -9.726,-31.274 -40.025,-65.157 -73.898,-82.12 l 47.767,171.2 56.455,-0.063 84.004,-195.39 -56.524,-0.001"
       inkscape:connector-curvature="0"
       style="fill:#0e4595" /><path
       id="path4"
       d="M 150.72757,154.16285 H 72.323624 l -0.621465,4.027 C 132.69961,174.21082 173.05931,212.92752 189.817,259.453 l -17.04838,-88.94389 c -2.94239,-12.25599 -11.47888,-15.91419 -22.03923,-16.34131"
       inkscape:connector-curvature="0"
       style="fill:#f2ae14;stroke-width:0.94918215" /></g></svg>